<svg width="121" height="120" viewBox="0 0 121 120" fill="none" xmlns="http://www.w3.org/2000/svg">
<path d="M60.5 113C89.7711 113 113.5 89.2711 113.5 60C113.5 30.7289 89.7711 7 60.5 7C31.2289 7 7.5 30.7289 7.5 60C7.5 89.2711 31.2289 113 60.5 113Z" fill="url(#paint0_linear)"/>
<g filter="url(#filter0_d)">
<path d="M76.3253 81H45.2033V72.369L58.7483 60.777C59.9663 59.727 60.9953 58.782 61.8353 57.942C62.6753 57.06 63.3473 56.22 63.8513 55.422C64.3973 54.582 64.7753 53.763 64.9853 52.965C65.2373 52.167 65.3633 51.306 65.3633 50.382V49.5C65.3633 48.66 65.1953 47.925 64.8593 47.295C64.5233 46.665 64.0823 46.14 63.5363 45.72C62.9903 45.3 62.3603 44.985 61.6463 44.775C60.9743 44.565 60.2813 44.46 59.5673 44.46C58.5173 44.46 57.5933 44.628 56.7953 44.964C56.0393 45.3 55.3673 45.762 54.7793 46.35C54.2333 46.896 53.7713 47.547 53.3933 48.303C53.0153 49.017 52.7213 49.794 52.5113 50.634L44.2583 47.484C44.7623 45.972 45.4553 44.544 46.3373 43.2C47.2193 41.814 48.3113 40.617 49.6133 39.609C50.9573 38.559 52.5323 37.74 54.3383 37.152C56.1443 36.564 58.1813 36.27 60.4493 36.27C62.8433 36.27 64.9643 36.606 66.8123 37.278C68.6603 37.95 70.2143 38.874 71.4743 40.05C72.7763 41.226 73.7633 42.633 74.4353 44.271C75.1073 45.867 75.4433 47.61 75.4433 49.5C75.4433 51.39 75.1283 53.112 74.4983 54.666C73.8683 56.22 73.0073 57.69 71.9153 59.076C70.8653 60.42 69.6263 61.701 68.1983 62.919C66.7703 64.137 65.2793 65.376 63.7253 66.636L55.5353 73.062H76.3253V81Z" fill="white"/>
<path d="M76.3253 82C76.8776 82 77.3253 81.5523 77.3253 81V73.062C77.3253 72.5097 76.8776 72.062 76.3253 72.062H58.4298L64.3426 67.4228L64.3551 67.4128C65.9151 66.1479 67.4125 64.9036 68.8472 63.6799C70.3208 62.423 71.6072 61.0945 72.7022 59.6931C73.8488 58.2375 74.7581 56.6868 75.425 55.0417C76.1092 53.3541 76.4433 51.5025 76.4433 49.5C76.4433 47.4907 76.0858 45.6158 75.3588 43.8873C74.6316 42.1165 73.5606 40.5885 72.1506 39.3134C70.7805 38.0363 69.1079 37.0487 67.154 36.3382C65.1756 35.6188 62.9353 35.27 60.4493 35.27C58.096 35.27 55.9519 35.575 54.0287 36.2011C52.1253 36.8209 50.4446 37.6909 48.9994 38.8196C47.609 39.8964 46.4405 41.1768 45.4974 42.6572C44.5702 44.0712 43.8405 45.5753 43.3096 47.1678C43.1402 47.6759 43.4013 48.2273 43.9017 48.4183L52.1547 51.5683C52.4219 51.6703 52.72 51.653 52.9736 51.5207C53.2272 51.3885 53.4121 51.154 53.4814 50.8766C53.6733 50.1093 53.9395 49.4086 54.2771 48.7709L54.2877 48.7502C54.6222 48.0813 55.0233 47.5203 55.4864 47.0571C55.9857 46.5578 56.5528 46.1674 57.1923 45.8819C57.8426 45.6097 58.6273 45.46 59.5673 45.46C60.1816 45.46 60.774 45.5501 61.348 45.7295L61.3641 45.7344C61.9692 45.9123 62.4862 46.1738 62.9266 46.5126C63.3557 46.8427 63.7054 47.2564 63.9769 47.7656C64.2231 48.2272 64.3633 48.7952 64.3633 49.5V50.382C64.3633 51.2144 64.2499 51.9729 64.0317 52.6639C64.0268 52.6793 64.0223 52.6949 64.0182 52.7105C63.8404 53.3861 63.5128 54.1079 63.0129 54.877L63.0128 54.877L63.0058 54.888C62.547 55.6144 61.9224 56.3997 61.1195 57.2436C60.3037 58.0589 59.2973 58.9834 58.0969 60.0183C58.0964 60.0188 58.0959 60.0192 58.0954 60.0196L44.5531 71.6093C44.3311 71.7993 44.2033 72.0768 44.2033 72.369V81C44.2033 81.5523 44.651 82 45.2033 82H76.3253Z" stroke="black" stroke-width="2" stroke-linejoin="round"/>
</g>
<defs>
<filter id="filter0_d" x="37.2578" y="29.27" width="56.0675" height="68.73" filterUnits="userSpaceOnUse" color-interpolation-filters="sRGB">
<feFlood flood-opacity="0" result="BackgroundImageFix"/>
<feColorMatrix in="SourceAlpha" type="matrix" values="0 0 0 0 0 0 0 0 0 0 0 0 0 0 0 0 0 0 127 0"/>
<feOffset dx="5" dy="5"/>
<feGaussianBlur stdDeviation="5"/>
<feColorMatrix type="matrix" values="0 0 0 0 0 0 0 0 0 0.627451 0 0 0 0 0.592157 0 0 0 0.4 0"/>
<feBlend mode="normal" in2="BackgroundImageFix" result="effect1_dropShadow"/>
<feBlend mode="normal" in="SourceGraphic" in2="effect1_dropShadow" result="shape"/>
</filter>
<linearGradient id="paint0_linear" x1="7.5" y1="7" x2="130.058" y2="32.0772" gradientUnits="userSpaceOnUse">
<stop stop-color="#98FFE6"/>
<stop offset="1" stop-color="#50EFF5"/>
</linearGradient>
</defs>
</svg>
