<svg width="121" height="120" viewBox="0 0 121 120" fill="none" xmlns="http://www.w3.org/2000/svg">
<path d="M60.5 113C89.7711 113 113.5 89.2711 113.5 60C113.5 30.7289 89.7711 7 60.5 7C31.2289 7 7.5 30.7289 7.5 60C7.5 89.2711 31.2289 113 60.5 113Z" fill="url(#paint0_linear)"/>
<g filter="url(#filter0_d)">
<path d="M58.1183 54.414C60.4703 54.414 62.1713 53.973 63.2213 53.091C64.3133 52.167 64.8593 51.033 64.8593 49.689V49.248C64.8593 47.652 64.3343 46.371 63.2843 45.405C62.2763 44.439 60.8273 43.956 58.9373 43.956C57.1733 43.956 55.5143 44.418 53.9603 45.342C52.4063 46.224 51.0833 47.505 49.9913 49.185L44.0693 43.641C44.9093 42.549 45.8123 41.562 46.7783 40.68C47.7443 39.756 48.8363 38.979 50.0543 38.349C51.2723 37.677 52.6373 37.173 54.1493 36.837C55.6613 36.459 57.3623 36.27 59.2523 36.27C61.6043 36.27 63.7253 36.543 65.6153 37.089C67.5473 37.635 69.1853 38.433 70.5293 39.483C71.9153 40.491 72.9653 41.709 73.6793 43.137C74.4353 44.565 74.8133 46.161 74.8133 47.925C74.8133 49.311 74.5823 50.571 74.1203 51.705C73.7003 52.839 73.0913 53.826 72.2933 54.666C71.5373 55.506 70.6553 56.199 69.6473 56.745C68.6393 57.249 67.5683 57.606 66.4343 57.816V58.194C67.7363 58.446 68.9333 58.866 70.0253 59.454C71.1593 60 72.1253 60.714 72.9233 61.596C73.7633 62.478 74.4143 63.528 74.8763 64.746C75.3383 65.922 75.5693 67.266 75.5693 68.778C75.5693 70.752 75.1703 72.537 74.3723 74.133C73.5743 75.729 72.4403 77.094 70.9703 78.228C69.5003 79.362 67.7363 80.244 65.6783 80.874C63.6203 81.462 61.3523 81.756 58.8743 81.756C56.6483 81.756 54.6743 81.525 52.9523 81.063C51.2303 80.601 49.7183 79.992 48.4163 79.236C47.1563 78.438 46.0433 77.535 45.0773 76.527C44.1533 75.519 43.3343 74.448 42.6203 73.314L49.6133 67.896C50.5793 69.702 51.7553 71.193 53.1413 72.369C54.5693 73.503 56.4803 74.07 58.8743 74.07C61.0163 74.07 62.6753 73.545 63.8513 72.495C65.0693 71.403 65.6783 69.933 65.6783 68.085V67.707C65.6783 65.901 64.9853 64.557 63.5993 63.675C62.2553 62.751 60.3863 62.289 57.9923 62.289H54.0233V54.414H58.1183Z" fill="white"/>
<path d="M62.5924 46.127L62.6072 46.141C63.4258 46.8941 63.8593 47.8949 63.8593 49.248V49.689C63.8593 50.7174 63.4597 51.5787 62.5768 52.3264C61.7969 52.9807 60.3871 53.414 58.1183 53.414H54.0233C53.471 53.414 53.0233 53.8617 53.0233 54.414V62.289C53.0233 62.8413 53.471 63.289 54.0233 63.289H57.9923C60.2738 63.289 61.9167 63.7318 63.0328 64.4991C63.0425 64.5058 63.0524 64.5123 63.0624 64.5187C64.1275 65.1964 64.6783 66.2025 64.6783 67.707V68.085C64.6783 69.6892 64.1619 70.8731 63.1847 71.7496C62.2489 72.5848 60.8591 73.07 58.8743 73.07C56.6428 73.07 54.9772 72.5445 53.7756 71.5958C52.5023 70.5123 51.4063 69.1279 50.4951 67.4244C50.3562 67.1647 50.11 66.9795 49.822 66.918C49.534 66.8566 49.2336 66.9252 49.0008 67.1055L42.0078 72.5235C41.601 72.8387 41.4998 73.4113 41.7741 73.8468C42.5207 75.0327 43.3764 76.1514 44.3401 77.2027L44.3553 77.2189C45.3809 78.2891 46.5576 79.2425 47.8812 80.0808C47.8921 80.0877 47.9031 80.0944 47.9142 80.1008C49.3048 80.9083 50.9012 81.5481 52.6932 82.0289C54.5176 82.5183 56.5815 82.756 58.8743 82.756C61.4309 82.756 63.7929 82.4527 65.953 81.8355L65.971 81.8302C68.126 81.1705 70.002 80.238 71.5811 79.0198C73.1654 77.7976 74.3986 76.3165 75.2667 74.5802C76.1413 72.8312 76.5693 70.8905 76.5693 68.778C76.5693 67.1671 76.3235 65.6974 75.8092 64.3858C75.3049 63.0585 74.5888 61.8974 73.6562 60.9156C72.7731 59.942 71.7105 59.1585 70.4796 58.5629C70.0965 58.3575 69.7023 58.1715 69.2972 58.0048C69.5668 57.8922 69.8325 57.7704 70.0945 57.6394C70.0975 57.638 70.1004 57.6365 70.1034 57.635C70.1101 57.6315 70.1169 57.6279 70.1236 57.6243C71.2265 57.0269 72.1962 56.2665 73.0276 55.3449C73.9148 54.4083 74.5893 53.3122 75.0525 52.0673C75.5652 50.8028 75.8133 49.4175 75.8133 47.925C75.8133 46.0174 75.404 44.2619 74.5686 42.6795C73.7803 41.1071 72.6272 39.7753 71.1314 38.6844C69.6722 37.5476 67.9176 36.7008 65.8901 36.1275C63.895 35.5515 61.6793 35.27 59.2523 35.27C57.3024 35.27 55.5222 35.4643 53.9196 35.8637C52.3347 36.217 50.8867 36.7492 49.583 37.467C48.2907 38.1368 47.127 38.9642 46.0955 39.9493C45.0874 40.8707 44.148 41.8986 43.2767 43.0313C42.9628 43.4394 43.01 44.0192 43.3859 44.371L49.3079 49.915C49.5239 50.1172 49.8183 50.2134 50.112 50.1777C50.4057 50.142 50.6685 49.9781 50.8297 49.73C51.8452 48.1678 53.0554 47.0055 54.4539 46.2117L54.4714 46.2016C55.8748 45.3671 57.3578 44.956 58.9373 44.956C60.6626 44.956 61.8284 45.3948 62.5924 46.127Z" stroke="black" stroke-width="2" stroke-linejoin="round"/>
</g>
<defs>
<filter id="filter0_d" x="35.6202" y="29.27" width="56.9491" height="69.486" filterUnits="userSpaceOnUse" color-interpolation-filters="sRGB">
<feFlood flood-opacity="0" result="BackgroundImageFix"/>
<feColorMatrix in="SourceAlpha" type="matrix" values="0 0 0 0 0 0 0 0 0 0 0 0 0 0 0 0 0 0 127 0"/>
<feOffset dx="5" dy="5"/>
<feGaussianBlur stdDeviation="5"/>
<feColorMatrix type="matrix" values="0 0 0 0 0 0 0 0 0 0.627451 0 0 0 0 0.592157 0 0 0 0.4 0"/>
<feBlend mode="normal" in2="BackgroundImageFix" result="effect1_dropShadow"/>
<feBlend mode="normal" in="SourceGraphic" in2="effect1_dropShadow" result="shape"/>
</filter>
<linearGradient id="paint0_linear" x1="7.5" y1="7" x2="130.058" y2="32.0772" gradientUnits="userSpaceOnUse">
<stop stop-color="#98FFE6"/>
<stop offset="1" stop-color="#50EFF5"/>
</linearGradient>
</defs>
</svg>
