<svg width="121" height="120" viewBox="0 0 121 120" fill="none" xmlns="http://www.w3.org/2000/svg">
<path d="M60.5 113C89.7711 113 113.5 89.2711 113.5 60C113.5 30.7289 89.7711 7 60.5 7C31.2289 7 7.5 30.7289 7.5 60C7.5 89.2711 31.2289 113 60.5 113Z" fill="url(#paint0_linear)"/>
<g filter="url(#filter0_d)">
<path d="M74.4983 45.2789H54.5273L53.5823 59.2019H54.0863C54.5063 58.1519 54.9683 57.2069 55.4723 56.3669C56.0183 55.4849 56.6483 54.7499 57.3623 54.1619C58.0763 53.5319 58.9373 53.0489 59.9453 52.7129C60.9533 52.3769 62.1503 52.2089 63.5363 52.2089C65.4263 52.2089 67.1903 52.5239 68.8283 53.1539C70.4663 53.7839 71.8943 54.7079 73.1123 55.9259C74.3303 57.1019 75.2963 58.5719 76.0103 60.3359C76.7243 62.0579 77.0813 64.0109 77.0813 66.1949C77.0813 68.4209 76.7033 70.4999 75.9473 72.4319C75.2333 74.3219 74.1413 75.9599 72.6713 77.3459C71.2433 78.7319 69.4793 79.8239 67.3793 80.6219C65.2793 81.3779 62.8853 81.7559 60.1973 81.7559C58.0553 81.7559 56.1653 81.5249 54.5273 81.0629C52.8893 80.6009 51.4403 79.9919 50.1803 79.2359C48.9203 78.4379 47.8283 77.5349 46.9043 76.5269C45.9803 75.5189 45.1823 74.4479 44.5103 73.3139L51.3773 67.8959C52.3433 69.6179 53.4983 71.0879 54.8423 72.3059C56.1863 73.4819 57.9923 74.0699 60.2603 74.0699C62.5283 74.0699 64.2293 73.4189 65.3633 72.1169C66.5393 70.8149 67.1273 69.0929 67.1273 66.9509V66.4469C67.1273 64.4309 66.5393 62.8349 65.3633 61.6589C64.1873 60.4829 62.5703 59.8949 60.5123 59.8949C58.7903 59.8949 57.3623 60.2519 56.2283 60.9659C55.1363 61.6379 54.2963 62.3099 53.7083 62.9819L45.9593 61.9109L47.5973 37.0259H74.4983V45.2789Z" fill="white"/>
<path d="M74.4983 46.2789C75.0506 46.2789 75.4983 45.8312 75.4983 45.2789V37.0259C75.4983 36.4736 75.0506 36.0259 74.4983 36.0259H47.5973C47.0705 36.0259 46.6341 36.4345 46.5995 36.9602L44.9615 61.8452C44.927 62.3686 45.3028 62.8297 45.8224 62.9015L53.5714 63.9725C53.9049 64.0186 54.2392 63.8937 54.4609 63.6404C54.9609 63.0689 55.7119 62.4578 56.7524 61.8175L56.7524 61.8176L56.7611 61.8121C57.6959 61.2235 58.9258 60.8949 60.5123 60.8949C62.3718 60.8949 63.7102 61.42 64.6562 62.366C65.6061 63.3159 66.1273 64.6361 66.1273 66.4469V66.9509C66.1273 68.9026 65.5964 70.3669 64.6212 71.4466L64.6092 71.4601C63.7204 72.4806 62.3354 73.0699 60.2603 73.0699C58.1712 73.0699 56.6234 72.5325 55.5072 71.5589C54.2528 70.4207 53.1657 69.0399 52.2494 67.4066C52.1063 67.1515 51.8587 66.9719 51.5718 66.915C51.2849 66.8581 50.9875 66.9296 50.7579 67.1108L43.8909 72.5288C43.4976 72.8391 43.3946 73.3927 43.65 73.8237C44.3585 75.0193 45.1982 76.1456 46.1671 77.2026C47.1559 78.2812 48.3174 79.2397 49.6452 80.0807L49.6658 80.0934C51.0127 80.9015 52.5457 81.543 54.2558 82.0253C56.0015 82.5177 57.9861 82.7559 60.1973 82.7559C62.9779 82.7559 65.4897 82.365 67.718 81.5628L67.7345 81.5567C69.943 80.7175 71.8259 79.5585 73.3625 78.0686C74.9389 76.5808 76.1137 74.8184 76.8806 72.791C77.6839 70.7361 78.0813 68.5344 78.0813 66.1949C78.0813 63.9034 77.7068 61.8185 76.9358 59.9572C76.1772 58.0841 75.1399 56.4954 73.8133 55.2126C72.4958 53.8968 70.9506 52.8987 69.1873 52.2205C67.4262 51.5432 65.5395 51.2089 63.5363 51.2089C62.0737 51.2089 60.7647 51.3857 59.6291 51.7642L59.9453 52.7129L59.6291 51.7642C58.5143 52.1358 57.5366 52.6778 56.7135 53.4007C56.0052 53.9864 55.3803 54.692 54.8353 55.5088L55.4617 46.2789H74.4983Z" stroke="black" stroke-width="2" stroke-linejoin="round"/>
</g>
<defs>
<filter id="filter0_d" x="37.5102" y="30.0259" width="56.5711" height="68.73" filterUnits="userSpaceOnUse" color-interpolation-filters="sRGB">
<feFlood flood-opacity="0" result="BackgroundImageFix"/>
<feColorMatrix in="SourceAlpha" type="matrix" values="0 0 0 0 0 0 0 0 0 0 0 0 0 0 0 0 0 0 127 0"/>
<feOffset dx="5" dy="5"/>
<feGaussianBlur stdDeviation="5"/>
<feColorMatrix type="matrix" values="0 0 0 0 0 0 0 0 0 0.627451 0 0 0 0 0.592157 0 0 0 0.4 0"/>
<feBlend mode="normal" in2="BackgroundImageFix" result="effect1_dropShadow"/>
<feBlend mode="normal" in="SourceGraphic" in2="effect1_dropShadow" result="shape"/>
</filter>
<linearGradient id="paint0_linear" x1="7.5" y1="7" x2="130.058" y2="32.0772" gradientUnits="userSpaceOnUse">
<stop stop-color="#98FFE6"/>
<stop offset="1" stop-color="#50EFF5"/>
</linearGradient>
</defs>
</svg>
