<svg width="121" height="120" viewBox="0 0 121 120" fill="none" xmlns="http://www.w3.org/2000/svg">
<path d="M60.5 113C89.7711 113 113.5 89.2711 113.5 60C113.5 30.7289 89.7711 7 60.5 7C31.2289 7 7.5 30.7289 7.5 60C7.5 89.2711 31.2289 113 60.5 113Z" fill="url(#paint0_linear)"/>
<g filter="url(#filter0_d)">
<path d="M60.7643 81.7559C58.1603 81.7559 55.8293 81.3569 53.7713 80.5589C51.7133 79.7189 49.9703 78.5429 48.5423 77.0309C47.1563 75.4769 46.0853 73.6289 45.3293 71.4869C44.6153 69.3449 44.2583 66.9509 44.2583 64.3049C44.2583 61.2389 44.7203 58.3409 45.6443 55.6109C46.6103 52.8389 47.8283 50.2979 49.2983 47.9879C50.8103 45.6359 52.4903 43.5359 54.3383 41.6879C56.2283 39.8399 58.1183 38.2859 60.0083 37.0259H73.0493C70.3613 38.9579 67.9463 40.8059 65.8043 42.5699C63.6623 44.2919 61.7933 46.0349 60.1973 47.7989C58.6433 49.5629 57.3413 51.3689 56.2913 53.2169C55.2833 55.0229 54.5693 56.9759 54.1493 59.0759L54.7163 59.2649C55.0943 58.4249 55.5353 57.6059 56.0393 56.8079C56.5853 56.0099 57.2363 55.3169 57.9923 54.7289C58.7903 54.0989 59.7143 53.5949 60.7643 53.2169C61.8143 52.8389 63.0323 52.6499 64.4183 52.6499C66.2243 52.6499 67.9043 52.9859 69.4583 53.6579C71.0543 54.2879 72.4193 55.1909 73.5533 56.3669C74.7293 57.5429 75.6323 58.9919 76.2623 60.7139C76.9343 62.3939 77.2703 64.2629 77.2703 66.3209C77.2703 68.5889 76.8713 70.6679 76.0733 72.5579C75.3173 74.4479 74.2043 76.0859 72.7343 77.4719C71.3063 78.8159 69.5843 79.8659 67.5683 80.6219C65.5523 81.3779 63.2843 81.7559 60.7643 81.7559ZM60.7643 74.3849C62.8643 74.3849 64.5023 73.8179 65.6783 72.6839C66.8543 71.5079 67.4423 69.8489 67.4423 67.7069V66.5729C67.4423 64.4309 66.8543 62.7929 65.6783 61.6589C64.5023 60.4829 62.8643 59.8949 60.7643 59.8949C58.6643 59.8949 57.0263 60.4829 55.8503 61.6589C54.6743 62.7929 54.0863 64.4309 54.0863 66.5729V67.7069C54.0863 69.8489 54.6743 71.5079 55.8503 72.6839C57.0263 73.8179 58.6643 74.3849 60.7643 74.3849Z" fill="white"/>
<path d="M53.3934 81.4847L53.4098 81.4912C55.6018 82.3412 58.0584 82.7559 60.7643 82.7559C63.3842 82.7559 65.7738 82.3628 67.9194 81.5582C70.0473 80.7603 71.8861 79.6435 73.4197 78.2001L73.4203 78.1995C74.9946 76.7151 76.1888 74.9582 76.9983 72.938C77.851 70.9149 78.2703 68.7049 78.2703 66.3209C78.2703 64.1585 77.9179 62.1658 77.1963 60.3562C76.5228 58.5209 75.5494 56.9508 74.2669 55.6662C73.0334 54.389 71.5534 53.4121 69.8404 52.7336C68.1571 52.0082 66.3459 51.6499 64.4183 51.6499C62.9437 51.6499 61.6069 51.8507 60.4256 52.276C59.2852 52.6865 58.2652 53.2398 57.3754 53.9418C57.166 54.1048 56.9638 54.2752 56.7689 54.4527C56.8945 54.2014 57.0257 53.953 57.1627 53.7076C58.1741 51.9279 59.4328 50.1801 60.9433 48.4649C62.498 46.7471 64.3258 45.0415 66.4309 43.3493L66.4309 43.3493L66.44 43.3418C68.5622 41.5941 70.9595 39.7595 73.6329 37.8379C73.9855 37.5845 74.1343 37.1326 74.0011 36.7193C73.868 36.306 73.4835 36.0259 73.0493 36.0259H60.0083C59.8109 36.0259 59.6179 36.0843 59.4536 36.1938C57.5044 37.4933 55.5666 39.0883 53.6392 40.9729L53.6391 40.9728L53.6312 40.9808C51.7293 42.8827 50.0051 45.0392 48.4571 47.4471L48.4571 47.4471L48.4546 47.451C46.9403 49.8307 45.6896 52.4421 44.7 55.2818L44.7 55.2818L44.6971 55.2903C43.736 58.13 43.2583 61.1368 43.2583 64.3049C43.2583 67.0403 43.6274 69.5433 44.3806 71.8031L44.3863 71.8197C45.1816 74.0732 46.3158 76.0369 47.796 77.6965C47.8023 77.7036 47.8088 77.7106 47.8153 77.7175C49.3479 79.3403 51.2125 80.5946 53.3934 81.4847ZM64.9712 62.366L64.9842 62.3787C65.9092 63.2707 66.4423 64.6141 66.4423 66.5729V67.7069C66.4423 69.6591 65.9123 71.0318 64.9776 71.9704C64.0371 72.8736 62.6778 73.3849 60.7643 73.3849C58.8508 73.3849 57.4915 72.8736 56.551 71.9703C55.6163 71.0318 55.0863 69.659 55.0863 67.7069V66.5729C55.0863 64.6141 55.6194 63.2707 56.5444 62.3787L56.5574 62.366C57.4997 61.4237 58.8562 60.8949 60.7643 60.8949C62.6724 60.8949 64.0289 61.4237 64.9712 62.366Z" stroke="black" stroke-width="2" stroke-linejoin="round"/>
</g>
<defs>
<filter id="filter0_d" x="37.2583" y="30.0259" width="57.012" height="68.73" filterUnits="userSpaceOnUse" color-interpolation-filters="sRGB">
<feFlood flood-opacity="0" result="BackgroundImageFix"/>
<feColorMatrix in="SourceAlpha" type="matrix" values="0 0 0 0 0 0 0 0 0 0 0 0 0 0 0 0 0 0 127 0"/>
<feOffset dx="5" dy="5"/>
<feGaussianBlur stdDeviation="5"/>
<feColorMatrix type="matrix" values="0 0 0 0 0 0 0 0 0 0.627451 0 0 0 0 0.592157 0 0 0 0.4 0"/>
<feBlend mode="normal" in2="BackgroundImageFix" result="effect1_dropShadow"/>
<feBlend mode="normal" in="SourceGraphic" in2="effect1_dropShadow" result="shape"/>
</filter>
<linearGradient id="paint0_linear" x1="7.5" y1="7" x2="130.058" y2="32.0772" gradientUnits="userSpaceOnUse">
<stop stop-color="#98FFE6"/>
<stop offset="1" stop-color="#50EFF5"/>
</linearGradient>
</defs>
</svg>
