<svg width="134" height="134" viewBox="0 0 134 134" fill="none" xmlns="http://www.w3.org/2000/svg">
<g clip-path="url(#clip0)">
<rect width="134" height="134" rx="67" fill="#0047FF"/>
<path d="M116.718 84.5535L115.534 87.6524L116.863 88.1151L118.015 85.1111L119.82 85.7391L118.536 89.1227L119.866 89.5854L121.711 84.5883L114.145 81.8495L113.584 83.4629L116.718 84.5535Z" fill="white"/>
<path d="M111.181 89.7556C110.764 90.0361 110.376 90.5394 109.955 91.1377C109.629 91.769 109.464 92.2435 109.456 92.8791C109.481 93.4197 109.505 93.9603 109.786 94.3773C110.067 94.7942 110.443 95.2441 110.885 95.5043L115.432 98.044L116.279 96.5297L111.826 94.0231C111.574 93.829 111.322 93.6349 111.165 93.4739C111.042 93.218 110.918 92.9621 110.922 92.6443C110.926 92.3266 111.025 92.0419 111.124 91.7571C111.318 91.5055 111.512 91.2538 111.673 91.097C111.929 90.9733 112.185 90.8496 112.408 90.8208C112.726 90.825 112.916 90.8911 113.201 90.9903L117.653 93.4969L118.5 91.9826L113.952 89.4429C113.415 89.1497 112.94 88.9845 112.399 89.0091C112.11 89.2277 111.631 89.3802 111.181 89.7556Z" fill="white"/>
<path d="M105.352 100.389L107.582 97.6532L112.778 101.695L113.781 100.342L107.482 95.4907L104.282 99.4844L105.352 100.389Z" fill="white"/>
<path d="M100.455 105.281L102.999 102.868L107.612 107.665L108.901 106.411L103.217 100.71L99.5464 104.22L100.455 105.281Z" fill="white"/>
<path d="M92.5185 109.117C92.1014 109.397 91.6844 109.678 91.4573 110.024C91.2302 110.371 91.0982 110.75 90.9661 111.13C90.834 111.51 90.7969 111.922 90.8878 112.273C90.9457 112.719 91.0367 113.07 91.1606 113.326L92.6348 112.455C92.6058 112.232 92.5438 112.105 92.5149 111.882C92.4859 111.659 92.552 111.469 92.618 111.279C92.684 111.089 92.7501 110.9 92.9111 110.743C93.0721 110.586 93.2332 110.429 93.3612 110.367C93.7452 110.182 94.0962 110.091 94.4142 110.095C94.7322 110.1 95.1122 110.232 95.4591 110.459C95.8061 110.686 96.087 111.103 96.4629 111.553C96.7107 112.065 96.8967 112.449 96.9546 112.894C97.0125 113.34 96.9754 113.753 96.7813 114.004C96.5873 114.256 96.3602 114.603 95.9762 114.788C95.8151 114.945 95.5921 114.974 95.3691 115.003C95.3031 115.192 95.0801 115.221 94.8901 115.155C94.7001 115.089 94.5101 115.023 94.3202 114.957C94.1302 114.891 93.9732 114.73 93.8163 114.569L92.3421 115.439C92.623 115.856 92.97 116.083 93.3169 116.31C93.6638 116.537 94.0438 116.669 94.4568 116.707C94.8698 116.744 95.2827 116.781 95.6668 116.596C96.1128 116.538 96.4968 116.352 96.9139 116.072C97.4589 115.73 97.942 115.259 98.2681 114.628C98.5613 114.092 98.6974 113.394 98.7055 112.759C98.6187 112.09 98.4369 111.389 97.97 110.588C97.5032 109.787 97.0323 109.304 96.4004 108.978C95.7685 108.651 95.1986 108.453 94.5626 108.445C93.7986 108.498 93.1916 108.712 92.5185 109.117Z" fill="white"/>
<path d="M88.6456 113.515C88.1747 113.032 87.5098 112.8 86.9068 112.697C86.3039 112.593 85.6349 112.68 84.8998 112.956C84.2598 113.265 83.7147 113.608 83.3266 114.111C82.9385 114.614 82.6124 115.246 82.6042 115.881C82.4681 116.579 82.6169 117.375 82.9887 118.143C83.3275 119.006 83.7654 119.584 84.2363 120.067C84.7072 120.55 85.3721 120.781 85.9751 120.884C86.578 120.988 87.247 120.901 87.9821 120.625C88.6221 120.316 89.1672 119.973 89.5553 119.47C89.9434 118.967 90.2695 118.335 90.2777 117.7C90.2858 117.064 90.232 116.301 89.8932 115.438C89.5544 114.575 89.1495 113.903 88.6456 113.515ZM87.5804 114.74C87.8943 115.062 88.1752 115.479 88.3281 115.958C88.576 116.469 88.6339 116.915 88.5638 117.423C88.5267 117.835 88.3946 118.215 88.2005 118.467C88.0065 118.718 87.6844 119.032 87.3334 119.123C86.9824 119.213 86.6314 119.304 86.2184 119.267C85.8384 119.134 85.5535 119.035 85.2395 118.713C84.9256 118.391 84.6447 117.974 84.4918 117.496C84.244 116.984 84.1861 116.538 84.2231 116.125C84.2602 115.713 84.3923 115.333 84.5864 115.081C84.8134 114.735 85.1025 114.516 85.4535 114.425C85.8375 114.24 86.1555 114.244 86.5685 114.281C86.8865 114.286 87.2664 114.418 87.5804 114.74Z" fill="white"/>
<path d="M75.9925 115.602L74.8666 124.042L76.7167 123.621L77.4341 117.274L77.4671 117.179L80.6068 122.847L82.4568 122.426L78.0655 115.153L75.9925 115.602Z" fill="white"/>
<path d="M70.0693 116.287L70.7081 124.302L72.4123 124.167L71.7735 116.152L70.0693 116.287Z" fill="white"/>
<path d="M65.2966 116.35C64.4706 116.275 63.7686 116.456 63.1285 116.766C62.4885 117.075 62.0384 117.45 61.7123 118.082C61.4192 118.618 61.25 119.41 61.1758 120.236C61.1016 121.061 61.2835 121.763 61.5933 122.403C61.9032 123.042 62.2791 123.492 62.911 123.819C63.4479 124.112 64.2078 124.376 64.9388 124.418L67.7677 124.551L68.1255 116.483L65.2966 116.35ZM66.1981 122.941L65.1491 122.895C64.6412 122.825 64.2282 122.787 63.8812 122.56C63.5343 122.333 63.3154 122.044 63.1295 121.66C62.9435 121.276 62.8856 120.831 62.8938 120.195C62.9019 119.56 63.067 119.085 63.1991 118.705C63.3312 118.326 63.6532 118.012 64.0042 117.922C64.3883 117.736 64.8343 117.678 65.2473 117.716L66.2962 117.761L66.1981 122.941Z" fill="white"/>
<path d="M55.416 118.525L55.1733 119.809L58.7308 120.482L58.9735 119.199L55.416 118.525Z" fill="white"/>
<path d="M50.5211 120.253L52.4113 114.207L50.7965 113.646L48.3449 121.304L49.8647 121.833L52.2268 121.165L52.6271 119.709L50.5211 120.253Z" fill="white"/>
<path d="M45.3545 118.881C45.7715 118.6 46.1266 118.192 46.2917 117.717C46.5518 117.276 46.6219 116.768 46.564 116.322C46.5061 115.877 46.4152 115.526 46.1343 115.109C45.9484 114.725 45.5064 114.465 45.1595 114.238C44.8745 114.139 44.5896 114.04 44.3996 113.973C44.2096 113.907 43.8586 113.998 43.6356 114.027C43.3465 114.245 43.0905 114.369 42.9295 114.526L42.8345 114.493C43.1937 113.767 43.5818 113.263 43.9988 112.983C44.4159 112.702 44.8619 112.645 45.4318 112.843C45.7168 112.942 45.9687 113.136 45.9977 113.359C46.1216 113.615 46.1506 113.838 46.0515 114.123L47.6003 114.874C47.7654 114.4 47.8025 113.987 47.7116 113.636C47.6537 113.191 47.4678 112.807 47.1538 112.485C46.8399 112.163 46.526 111.841 45.9891 111.547C45.5471 111.287 45.1342 111.25 44.6262 111.18C44.1182 111.109 43.7342 111.295 43.3502 111.48C42.9661 111.666 42.516 112.041 42.161 112.45C41.8059 112.858 41.5128 113.395 41.1866 114.026C40.8605 114.657 40.6624 115.227 40.6543 115.862C40.5841 116.37 40.642 116.816 40.7949 117.294C40.9809 117.678 41.1668 118.062 41.3857 118.351C41.6996 118.673 42.0466 118.9 42.4265 119.032C42.9634 119.326 43.4714 119.396 44.0124 119.371C44.5534 119.347 44.9374 119.161 45.3545 118.881ZM42.3849 117.316C42.2279 117.155 42.199 116.932 42.2031 116.614C42.2071 116.296 42.2732 116.106 42.3392 115.917C42.4052 115.727 42.5663 115.57 42.6943 115.508C42.8223 115.446 42.9833 115.289 43.1113 115.228C43.2393 115.166 43.4623 115.137 43.6853 115.108C43.9083 115.079 44.0983 115.145 44.1933 115.178C44.4783 115.278 44.6352 115.439 44.7592 115.695C44.9162 115.856 44.9451 116.078 44.9741 116.301C45.003 116.524 44.9039 116.809 44.8379 116.999C44.7388 117.283 44.5778 117.44 44.4168 117.597C44.2558 117.754 44.0328 117.782 43.7767 117.906C43.5537 117.935 43.2688 117.836 43.0788 117.77C42.7938 117.671 42.5088 117.571 42.3849 117.316Z" fill="white"/>
<path d="M37.5594 106.699L34.2315 110.755L34.1366 110.722L35.8907 105.374L35.0729 104.664L30.0764 107.394L30.0144 107.266L33.4042 103.339L32.0825 102.24L26.9462 108.433L28.6149 109.758L33.7394 106.966L33.8014 107.094L32.0762 112.665L33.6499 113.957L38.7861 107.765L37.5594 106.699Z" fill="white"/>
<path d="M27.5718 96.8408L26.5106 97.7484L28.9229 100.609L27.4447 101.797L25.1563 99.1923L24.0951 100.1L26.3835 102.705L24.8723 103.988L22.4599 101.127L21.3988 102.034L24.9718 106.15L31.0498 100.924L27.5718 96.8408Z" fill="white"/>
<path d="M25.0436 93.0886C24.6388 92.4157 24.0729 91.8997 23.569 91.5116C22.9371 91.1853 22.3672 90.987 21.6981 91.0735C21.0291 91.1599 20.3271 91.3412 19.621 91.8403C18.948 92.2445 18.3369 92.7767 18.0107 93.408C17.6846 94.0393 17.4865 94.6087 17.5733 95.2773C17.5652 95.9129 17.842 96.6476 18.2469 97.3204L19.6803 99.6278L26.5721 95.4291L25.0436 93.0886ZM20.0268 97.4077L19.498 96.4789C19.2171 96.062 19.0642 95.5832 19.0683 95.2655C19.0104 94.8197 19.1095 94.535 19.3365 94.1884C19.5636 93.8419 19.8857 93.5283 20.4307 93.186C20.9758 92.8437 21.4548 92.6911 21.8058 92.6005C22.2518 92.5428 22.5368 92.642 22.9167 92.7742C23.2637 93.0013 23.5776 93.3233 23.7635 93.7072L24.2923 94.6359L20.0268 97.4077Z" fill="white"/>
<path d="M14.2712 89.7384L14.9745 91.296L22.3076 87.9931L21.6044 86.4354L14.2712 89.7384Z" fill="white"/>
<path d="M16.067 78.7939L16.5546 80.4531C16.7776 80.4243 16.9676 80.4904 17.1906 80.4616C17.3806 80.5277 17.5706 80.5938 17.7275 80.7548C17.8845 80.9158 18.0745 80.9819 18.1034 81.2047C18.2604 81.3657 18.2893 81.5886 18.3183 81.8115C18.4092 82.1623 18.4671 82.608 18.368 82.8927C18.236 83.2724 18.0419 83.524 17.7198 83.8376C17.3978 84.1511 17.0138 84.3367 16.4067 84.5511C15.9277 84.7036 15.3867 84.7281 14.9737 84.6909C14.5607 84.6536 14.1808 84.5214 13.9288 84.3273C13.6769 84.1333 13.491 83.7494 13.3051 83.3655C13.2761 83.1427 13.2472 82.9198 13.2182 82.6969C13.1893 82.4741 13.2553 82.2843 13.3213 82.0944C13.3874 81.9046 13.5484 81.7479 13.6144 81.5581C13.7755 81.4013 13.9035 81.3394 14.1595 81.2157L13.6719 79.5565C13.2878 79.7421 12.8708 80.0226 12.5818 80.2412C12.2597 80.5547 12.0326 80.9013 11.9336 81.186C11.8015 81.5657 11.6694 81.9453 11.7273 82.391C11.6902 82.8037 11.7481 83.2494 11.901 83.7282C12.0829 84.4298 12.4257 84.9747 12.9296 85.3628C13.4005 85.8458 13.9705 86.0441 14.6684 86.1806C15.3664 86.317 16.1304 86.2636 16.9604 86.0204C17.7904 85.7772 18.4635 85.373 18.9466 84.9027C19.4297 84.4324 19.7558 83.8011 19.8589 83.1986C19.9621 82.5962 20.0032 81.8657 19.7884 81.259C19.6355 80.7802 19.4496 80.3963 19.1687 79.9794C18.8547 79.6574 18.6358 79.3684 18.2889 79.1413C17.9419 78.9142 17.562 78.782 17.149 78.7448C16.736 78.7075 16.418 78.7032 16.067 78.7939Z" fill="white"/>
<path d="M16.3388 74.9518L15.9625 72.0546L17.7216 71.2835L17.49 69.5006L9.90436 73.2451L10.1939 75.4738L18.5363 77.2059L18.3047 75.423L16.3388 74.9518ZM11.7711 74.001L14.6824 72.6732L14.9429 74.679L11.7711 74.001Z" fill="white"/>
<path d="M17.6374 62.9554L16.2705 62.9054L16.1307 66.3678L9.4859 66.1838L9.43253 67.8676L17.5393 68.1346L17.6374 62.9554Z" fill="white"/>
<path d="M19.4155 53.2536C19.3576 52.8079 19.2667 52.4571 19.0807 52.0732C18.8948 51.6893 18.6759 51.4004 18.329 51.1733C17.982 50.9462 17.7301 50.7521 17.3501 50.6199L16.8838 52.2664C17.0737 52.3325 17.2307 52.4935 17.3877 52.6545C17.5446 52.8155 17.6066 52.9434 17.7636 53.1044C17.8255 53.2324 17.8545 53.4553 17.8834 53.6781C17.9124 53.901 17.8463 54.0908 17.7803 54.2806C17.6482 54.6603 17.5161 55.0399 17.2271 55.2585C16.9381 55.4771 16.649 55.6958 16.203 55.7534C15.757 55.811 15.344 55.7737 14.7411 55.6703C14.1711 55.472 13.7912 55.3398 13.4442 55.1127C13.0973 54.8856 12.8783 54.5967 12.7874 54.2458C12.6965 53.895 12.6056 53.5442 12.7707 53.0697C12.8367 52.8799 12.9028 52.69 12.9688 52.5002C13.0348 52.3104 13.1959 52.1536 13.3239 52.0918C13.551 51.7452 13.679 51.6833 13.902 51.6545C14.125 51.6257 14.348 51.5969 14.538 51.663L15.0043 50.0165C14.4963 49.9462 14.0503 50.0038 13.6993 50.0945C13.3483 50.1852 12.9643 50.3707 12.6752 50.5894C12.3862 50.808 12.0641 51.1215 11.8371 51.4681C11.548 51.6867 11.3829 52.1613 11.2508 52.5409C11.1147 53.2383 11.1065 53.8738 11.2264 54.4475C11.4413 55.0542 11.7842 55.5991 12.255 56.0821C12.7259 56.5651 13.5148 57.0524 14.3077 57.2219C15.1957 57.4244 15.9266 57.4659 16.6287 57.2846C17.3307 57.1033 17.8758 56.7609 18.3258 56.3855C18.8089 55.9152 19.102 55.3789 19.2382 54.6815C19.4363 54.112 19.3784 53.6663 19.4155 53.2536Z" fill="white"/>
<path d="M15.7791 41.6681C15.2341 42.0104 14.8129 42.6087 14.4868 43.24C14.1607 43.8713 14.0245 44.5687 14.1444 45.1423C14.2313 45.8109 14.4461 46.4177 14.884 46.9956C15.3218 47.5735 15.9207 47.9947 16.7426 48.387C17.5645 48.7794 18.2625 48.9158 19.0265 48.8624C19.6955 48.776 20.3025 48.5616 20.8476 48.2193C21.3926 47.8769 21.8138 47.2787 22.1399 46.6474C22.466 46.0161 22.6022 45.3187 22.4823 44.745C22.3954 44.0764 22.1806 43.4697 21.7427 42.8917C21.3049 42.3138 20.706 41.8927 19.8841 41.5003C19.0622 41.108 18.3642 40.9715 17.6002 41.0249C16.9642 41.0164 16.3572 41.2308 15.7791 41.6681ZM19.1327 43.0476C19.6697 43.3408 20.0166 43.5679 20.3305 43.89C20.6445 44.212 20.7354 44.5628 20.8263 44.9136C20.9172 45.2644 20.7851 45.6441 20.6531 46.0237C20.521 46.4033 20.1989 46.7168 19.9429 46.8406C19.6539 47.0592 19.3028 47.1499 18.8899 47.1126C18.4769 47.0753 17.9689 47.0049 17.527 46.7448C17.085 46.4846 16.6431 46.2245 16.3292 45.9025C16.0153 45.5805 15.9243 45.2296 15.8334 44.8788C15.7425 44.528 15.8746 44.1484 16.0067 43.7687C16.1387 43.3891 16.4608 43.0756 16.7168 42.9519C17.0059 42.7332 17.3569 42.6426 17.7699 42.6799C18.2159 42.6222 18.6908 42.7875 19.1327 43.0476Z" fill="white"/>
<path d="M26.6026 38.4116L21.5052 31.6376L20.4359 33.1807L24.4427 38.1921L24.4097 38.2871L18.2312 36.4566L17.1619 37.9997L25.4342 40.2394L26.6026 38.4116Z" fill="white"/>
<path d="M29.2157 33.0435L27.77 31.6893L30.1565 29.115L29.0867 28.2108L26.8282 30.7233L25.3826 29.3691L27.8971 26.7329L26.8603 25.7339L23.2476 29.6903L29.0922 35.2348L32.833 31.2165L31.7632 30.3123L29.2157 33.0435Z" fill="white"/>
<path d="M35.4054 29.026L33.621 26.8092L34.6161 26.0915L37.5897 27.3389L39.068 26.1509L35.8093 24.8043L35.8424 24.7094C36.1024 24.2679 36.1395 23.8553 36.0816 23.4095C36.0237 22.9638 35.8378 22.5799 35.4619 22.13C35.181 21.713 34.7391 21.4529 34.3922 21.2258C33.9172 21.0605 33.5042 21.0233 33.0582 21.0809C32.5172 21.1055 32.0052 21.3529 31.5551 21.7283L29.0487 23.7289L33.9932 30.0242L35.4054 29.026ZM31.2747 23.7586L32.1748 23.0078C32.4639 22.7892 32.7199 22.6655 32.9429 22.6367C33.1659 22.6079 33.3889 22.5791 33.5789 22.6452C33.7688 22.7113 33.9258 22.8723 34.1778 23.0663C34.3347 23.2273 34.4587 23.4832 34.4876 23.7061C34.5166 23.929 34.4505 24.1188 34.3845 24.3086C34.3184 24.4984 34.1244 24.7501 33.8354 24.9687L32.9352 25.7195L31.2747 23.7586Z" fill="white"/>
<path d="M41.2482 24.7815L40.8597 22.8376L43.3909 21.3776L44.8366 22.7317L46.4388 21.7996L40.1192 16.0898L38.166 17.1126L39.6171 25.4907L41.2482 24.7815ZM40.0907 18.3142L42.4161 20.5064L40.591 21.4674L40.0907 18.3142Z" fill="white"/>
<path d="M46.9422 19.7404C47.4131 20.2234 48.045 20.5497 48.6479 20.6531C49.3459 20.7895 50.0149 20.7031 50.7169 20.5218C51.324 20.3074 51.869 19.965 52.2241 19.5566C52.5792 19.1481 52.8723 18.6118 52.9754 18.0093C53.0785 17.4068 53.0537 16.8661 52.7768 16.1314L52.4711 15.1739L49.3079 16.3077L49.7376 17.5211L51.3357 16.9068C51.4266 17.2576 51.4556 17.4805 51.4515 17.7982C51.3524 18.083 51.2534 18.3677 51.0924 18.5245C50.8983 18.7761 50.6423 18.8998 50.2582 19.0854C49.8742 19.271 49.4612 19.2337 49.1763 19.1346C48.7963 19.0024 48.5113 18.9032 48.1974 18.5812C47.8835 18.2592 47.6976 17.8753 47.4827 17.2686C47.3298 16.7898 47.21 16.2161 47.247 15.8035C47.2841 15.3908 47.4162 15.0111 47.6103 14.7595C47.8373 14.4129 48.1264 14.1943 48.4774 14.1036C48.7004 14.0748 48.8284 14.0129 49.0514 13.9841C49.2744 13.9553 49.4644 14.0214 49.5594 14.0545C49.7494 14.1206 49.8443 14.1536 50.0013 14.3146C50.1583 14.4756 50.2533 14.5087 50.4102 14.6697L52.0083 14.0553C51.8224 13.6715 51.6035 13.3825 51.2565 13.1554C50.9096 12.9283 50.6576 12.7342 50.2777 12.602C49.8977 12.4698 49.4847 12.4326 49.0717 12.3953C48.6588 12.358 48.1797 12.5105 47.8287 12.6012C47.3497 12.7537 46.9327 13.0342 46.5156 13.3147C46.1935 13.6282 45.8385 14.0366 45.6734 14.5112C45.5083 14.9857 45.3432 15.4603 45.368 16.0009C45.3929 16.5415 45.5128 17.1152 45.7277 17.7219C46.0334 18.6795 46.4713 19.2574 46.9422 19.7404Z" fill="white"/>
<path d="M60.8963 17.8924L60.6276 16.5221L56.9935 17.1729L56.5719 15.3239L59.983 14.702L59.7143 13.3317L56.3363 13.8588L56.0097 12.0428L59.6437 11.392L59.375 10.0218L54.1469 10.9692L55.5402 18.9016L60.8963 17.8924Z" fill="white"/>
<path d="M66.2841 9.53232L66.2641 17.5723L67.9737 17.5774L67.9938 9.5375L66.2841 9.53232Z" fill="white"/>
<path d="M70.5463 11.887C70.4432 12.4895 70.5961 12.9683 70.972 13.4182C71.3479 13.8682 71.7898 14.1283 72.4547 14.3597L73.3096 14.6571C73.5946 14.7563 73.8796 14.8554 74.0365 15.0164C74.2265 15.0825 74.3835 15.2435 74.4455 15.3715C74.5074 15.4994 74.5694 15.6274 74.5983 15.8503C74.5323 16.0401 74.4663 16.2299 74.3383 16.2918C74.1772 16.4485 74.0492 16.5104 73.8262 16.5392C73.6032 16.568 73.3802 16.5968 73.0622 16.5926C72.7442 16.5883 72.5543 16.5222 72.3023 16.3282C72.1123 16.2621 71.8604 16.068 71.8314 15.8452C71.8025 15.6223 71.6455 15.4613 71.6496 15.1435L70.0307 14.8995C69.9275 15.502 70.0804 15.9807 70.2663 16.3646C70.4523 16.7485 70.8612 17.1035 71.3031 17.3637C71.745 17.6238 72.315 17.8221 72.951 17.8306C73.5539 17.934 74.2229 17.8476 74.6689 17.7899C75.1479 17.6374 75.532 17.4518 75.854 17.1383C76.1761 16.8248 76.3082 16.4451 76.3783 15.9376C76.3824 15.6198 76.3864 15.302 76.2625 15.0461C76.1385 14.7902 76.0146 14.5343 75.8907 14.2784C75.7337 14.1174 75.4818 13.9233 75.2298 13.7292C74.9779 13.5352 74.6929 13.436 74.3129 13.3039L73.648 13.0725C73.458 13.0064 73.363 12.9734 73.173 12.9073C72.9831 12.8412 72.9211 12.7132 72.8261 12.6802C72.7641 12.5522 72.6691 12.5192 72.6072 12.3912C72.5452 12.2632 72.5782 12.1683 72.5162 12.0404C72.5823 11.8506 72.6153 11.7557 72.6813 11.5658C72.8424 11.4091 72.9704 11.3472 73.1934 11.3184C73.4164 11.2896 73.6394 11.2608 73.9574 11.265C74.3704 11.3023 74.6553 11.4015 74.9073 11.5955C75.1592 11.7896 75.2832 12.0455 75.1841 12.3302L76.803 12.5743C76.8731 12.0667 76.7822 11.7159 76.5963 11.332C76.4104 10.9481 76.0965 10.6261 75.6545 10.366C75.2126 10.1058 74.7376 9.94057 74.1347 9.83718C73.5317 9.73379 72.9907 9.75836 72.5117 9.91089C72.0327 10.0634 71.6487 10.249 71.2936 10.6574C70.8435 11.0328 70.5834 11.4743 70.5463 11.887Z" fill="white"/>
<path d="M83.3919 11.9188L80.9891 19.5902L82.6207 20.1013L85.0235 12.4299L83.3919 11.9188Z" fill="white"/>
<path d="M89.1884 14.0107L87.7966 13.4201L84.4281 20.6534L85.9769 21.405L88.1028 16.8249L89.2025 22.8464L90.5943 23.4371L93.8678 16.1708L92.414 15.4522L90.2881 20.0323L90.1931 19.9992L89.1884 14.0107Z" fill="white"/>
<path d="M95.8631 19.312C95.223 19.6213 94.7069 20.1865 94.1578 20.8466C93.7036 21.5398 93.3445 22.266 93.3033 22.9964C93.2622 23.7269 93.382 24.3006 93.5969 24.9073C93.9068 25.5471 94.2826 25.9971 94.8815 26.4182C95.3235 26.6784 95.7654 26.9385 96.1784 26.9758C96.5914 27.0131 97.0043 27.0504 97.4173 27.0877C97.8633 27.0301 98.2143 26.9394 98.5034 26.7208C98.8874 26.5352 99.1765 26.3166 99.3705 26.0649L98.0158 25.0616C97.8547 25.2183 97.6937 25.3751 97.4707 25.4039C97.3427 25.4658 97.1197 25.4946 96.8967 25.5234C96.6737 25.5522 96.4837 25.4861 96.2937 25.42C96.1037 25.3539 95.9138 25.2878 95.7568 25.1268C95.4099 24.8997 95.1909 24.6107 95.005 24.2269C94.9141 23.8761 94.8232 23.5252 94.8603 23.1126C94.8974 22.6999 95.1574 22.2584 95.4506 21.722C95.7106 21.2805 96.0657 20.8721 96.4498 20.6865C96.8338 20.5009 97.2178 20.3153 97.5358 20.3196C97.8538 20.3238 98.2338 20.456 98.5807 20.6831C98.7377 20.8441 98.9276 20.9102 99.0516 21.1661C99.2085 21.3271 99.2705 21.4551 99.2995 21.678C99.3284 21.9008 99.3904 22.0288 99.3244 22.2186C99.2583 22.4084 99.2873 22.6313 99.1262 22.788L100.609 23.7295C100.869 23.288 101.001 22.9084 101.038 22.4957C101.075 22.083 101.017 21.6373 100.927 21.2865C100.836 20.9357 100.65 20.5518 100.336 20.2298C100.117 19.9408 99.8029 19.6188 99.361 19.3587C98.7621 18.9375 98.1921 18.7392 97.4612 18.6977C97.0771 18.8832 96.4081 18.9697 95.8631 19.312Z" fill="white"/>
<path d="M102.75 32.8796L103.749 31.8441L101.267 29.4909L105.813 24.6888L104.524 23.4957L99.0738 29.3663L102.75 32.8796Z" fill="white"/>
<path d="M105.096 33.483C104.931 33.9575 104.861 34.4651 104.98 35.0388C105.1 35.6125 105.348 36.1243 105.786 36.7022C106.224 37.2801 106.633 37.6352 107.203 37.8335C107.645 38.0937 108.248 38.197 108.694 38.1394C109.235 38.1148 109.747 37.8674 110.197 37.492L114.309 34.2415L113.277 32.9246L109.325 36.0184C109.036 36.237 108.813 36.2658 108.557 36.3896C108.334 36.4184 108.016 36.4141 107.731 36.315C107.446 36.2158 107.194 36.0218 107.07 35.7659C106.851 35.4769 106.727 35.221 106.698 34.9981C106.669 34.7753 106.673 34.4575 106.773 34.1728C106.872 33.888 107.033 33.7313 107.322 33.5127L111.273 30.4189L110.241 29.102L106.128 32.3526C105.616 32.6 105.261 33.0084 105.096 33.483Z" fill="white"/>
<path d="M110.157 43.117C110.561 43.7898 110.999 44.3678 111.598 44.7889C112.102 45.177 112.8 45.3135 113.436 45.3219C114.072 45.3304 114.807 45.0542 115.575 44.683C116.343 44.3119 116.826 43.8416 117.247 43.2433C117.668 42.6451 117.772 42.0426 117.78 41.407C117.788 40.7715 117.606 40.0698 117.234 39.3021L115.867 36.8048L108.789 40.6197L110.157 43.117ZM115.954 39.9207C116.235 40.3376 116.293 40.7833 116.384 41.1342C116.347 41.5468 116.248 41.8316 116.021 42.1781C115.794 42.5247 115.376 42.8052 114.864 43.0526C114.352 43.3001 113.873 43.4526 113.427 43.5102C112.981 43.5678 112.601 43.4356 112.349 43.2416C112.003 43.0145 111.784 42.7255 111.536 42.2137L111.007 41.285L115.491 38.8021L115.954 39.9207Z" fill="white"/>
<path d="M114.544 53.1552L115.853 52.7595L114.531 49.214L116.352 48.5708L117.583 51.7655L118.893 51.3698L117.694 48.0802L119.515 47.4371L120.743 50.9495L122.085 50.4589L120.242 45.3491L112.701 48.0454L114.544 53.1552Z" fill="white"/>
<path d="M115.474 57.5218C115.623 58.3184 115.933 58.9581 116.371 59.5361C116.842 60.0191 117.346 60.4072 118.01 60.6385C118.675 60.8699 119.406 60.9114 120.236 60.6682C121.033 60.5199 121.768 60.2437 122.252 59.7734C122.83 59.3361 123.123 58.7997 123.321 58.2303C123.552 57.5659 123.56 56.9304 123.411 56.1338L122.907 53.2985L114.937 54.7814L115.474 57.5218ZM121.978 56.2737C122.036 56.7194 122.094 57.1651 121.962 57.5447C121.83 57.9244 121.636 58.176 121.314 58.4896C120.992 58.8031 120.513 58.9556 119.972 58.9802C119.398 59.0997 118.857 59.1243 118.477 58.9921C118.097 58.8599 117.75 58.6328 117.531 58.3438C117.312 58.0548 117.126 57.671 117.006 57.0973L116.829 56.0779L121.834 55.1593L121.978 56.2737Z" fill="white"/>
<path d="M119.899 67.1473L119.446 72.735L117.252 70.1632L116.319 71.0089L119.921 75.3475L124.199 71.6224L123.352 70.6894L120.78 72.8799L121.233 67.2922L119.899 67.1473Z" fill="white"/>
<path d="M66.9554 87.7265C78.3923 87.7265 87.6637 78.4469 87.6637 67C87.6637 55.5531 78.3923 46.2735 66.9554 46.2735C55.5185 46.2735 46.247 55.5531 46.247 67C46.247 78.4469 55.5185 87.7265 66.9554 87.7265Z" stroke="white" stroke-width="1.77654" stroke-miterlimit="10"/>
<path d="M67.6216 84.957C67.6216 84.589 67.3233 84.2908 66.9554 84.2908C66.5874 84.2908 66.2892 84.589 66.2892 84.957H67.6216ZM66.2892 84.957V91.4787H67.6216V84.957H66.2892Z" fill="white"/>
<path d="M66.9554 94.8736C67.892 94.8736 68.6513 94.1136 68.6513 93.1761C68.6513 92.2387 67.892 91.4787 66.9554 91.4787C66.0187 91.4787 65.2594 92.2387 65.2594 93.1761C65.2594 94.1136 66.0187 94.8736 66.9554 94.8736Z" stroke="white" stroke-width="1.33241" stroke-miterlimit="10"/>
<path d="M66.2892 48.9537C66.2892 49.3216 66.5874 49.6199 66.9554 49.6199C67.3233 49.6199 67.6216 49.3216 67.6216 48.9537L66.2892 48.9537ZM66.2892 42.432L66.2892 48.9537L67.6216 48.9537L67.6216 42.432L66.2892 42.432Z" fill="white"/>
<path d="M66.9554 42.5213C67.892 42.5213 68.6513 41.7614 68.6513 40.8239C68.6513 39.8864 67.892 39.1265 66.9554 39.1265C66.0187 39.1265 65.2594 39.8864 65.2594 40.8239C65.2594 41.7614 66.0187 42.5213 66.9554 42.5213Z" stroke="white" stroke-width="1.33241" stroke-miterlimit="10"/>
<path d="M46.247 67H41.0699" stroke="white" stroke-width="1.33241" stroke-miterlimit="10"/>
<path d="M38.4814 69.5908C39.911 69.5908 41.0699 68.4308 41.0699 67C41.0699 65.5691 39.911 64.4092 38.4814 64.4092C37.0518 64.4092 35.8929 65.5691 35.8929 67C35.8929 68.4308 37.0518 69.5908 38.4814 69.5908Z" stroke="white" stroke-width="1.33241" stroke-miterlimit="10"/>
<path d="M87.753 67H92.93" stroke="white" stroke-width="1.33241" stroke-miterlimit="10"/>
<path d="M95.5186 69.5908C96.9482 69.5908 98.1071 68.4308 98.1071 67C98.1071 65.5691 96.9482 64.4092 95.5186 64.4092C94.089 64.4092 92.9301 65.5691 92.9301 67C92.9301 68.4308 94.089 69.5908 95.5186 69.5908Z" stroke="white" stroke-width="1.33241" stroke-miterlimit="10"/>
<path d="M82.9135 75.3595C82.5963 75.1731 82.188 75.279 82.0016 75.5962C81.8151 75.9134 81.9211 76.3217 82.2383 76.5082L82.9135 75.3595ZM82.2383 76.5082L87.8617 79.8137L88.5369 78.665L82.9135 75.3595L82.2383 76.5082Z" fill="white"/>
<path d="M89.6274 81.7408C90.5641 81.7408 91.3234 80.9809 91.3234 80.0434C91.3234 79.1059 90.5641 78.346 89.6274 78.346C88.6908 78.346 87.9315 79.1059 87.9315 80.0434C87.9315 80.9809 88.6908 81.7408 89.6274 81.7408Z" stroke="white" stroke-width="1.33241" stroke-miterlimit="10"/>
<path d="M51.0934 58.5551C51.4128 58.7378 51.8198 58.627 52.0024 58.3076C52.1851 57.9882 52.0743 57.5812 51.7549 57.3985L51.0934 58.5551ZM45.47 55.339L51.0934 58.5551L51.7549 57.3985L46.1315 54.1824L45.47 55.339Z" fill="white"/>
<path d="M44.3726 55.5647C45.3092 55.5647 46.0685 54.8047 46.0685 53.8673C46.0685 52.9298 45.3092 52.1699 44.3726 52.1699C43.4359 52.1699 42.6766 52.9298 42.6766 53.8673C42.6766 54.8047 43.4359 55.5647 44.3726 55.5647Z" stroke="white" stroke-width="1.33241" stroke-miterlimit="10"/>
<path d="M56.6012 84.957L54.0127 89.5133" stroke="white" stroke-width="1.33241" stroke-miterlimit="10"/>
<path d="M52.763 94.3375C54.1926 94.3375 55.3515 93.1776 55.3515 91.7467C55.3515 90.3159 54.1926 89.1559 52.763 89.1559C51.3334 89.1559 50.1745 90.3159 50.1745 91.7467C50.1745 93.1776 51.3334 94.3375 52.763 94.3375Z" stroke="white" stroke-width="1.33241" stroke-miterlimit="10"/>
<path d="M77.3988 49.043L79.9873 44.4868" stroke="white" stroke-width="1.33241" stroke-miterlimit="10"/>
<path d="M81.237 44.8441C82.6666 44.8441 83.8255 43.6842 83.8255 42.2533C83.8255 40.8225 82.6666 39.6625 81.237 39.6625C79.8074 39.6625 78.6484 40.8225 78.6484 42.2533C78.6484 43.6842 79.8074 44.8441 81.237 44.8441Z" stroke="white" stroke-width="1.33241" stroke-miterlimit="10"/>
<path d="M82.2451 57.3986C81.9258 57.5812 81.8149 57.9882 81.9976 58.3076C82.1803 58.627 82.5873 58.7378 82.9066 58.5552L82.2451 57.3986ZM82.9066 58.5552L88.53 55.339L87.8685 54.1824L82.2451 57.3986L82.9066 58.5552Z" fill="white"/>
<path d="M89.6274 55.5647C90.5641 55.5647 91.3234 54.8047 91.3234 53.8673C91.3234 52.9298 90.5641 52.1699 89.6274 52.1699C88.6908 52.1699 87.9315 52.9298 87.9315 53.8673C87.9315 54.8047 88.6908 55.5647 89.6274 55.5647Z" stroke="white" stroke-width="1.33241" stroke-miterlimit="10"/>
<path d="M51.7617 76.5082C52.0789 76.3217 52.1849 75.9134 51.9985 75.5962C51.812 75.2791 51.4037 75.1731 51.0865 75.3595L51.7617 76.5082ZM46.1383 79.8137L51.7617 76.5082L51.0865 75.3595L45.4632 78.665L46.1383 79.8137Z" fill="white"/>
<path d="M44.3726 81.7408C45.3092 81.7408 46.0685 80.9809 46.0685 80.0434C46.0685 79.1059 45.3092 78.346 44.3726 78.346C43.4359 78.346 42.6766 79.1059 42.6766 80.0434C42.6766 80.9809 43.4359 81.7408 44.3726 81.7408Z" stroke="white" stroke-width="1.33241" stroke-miterlimit="10"/>
<path d="M77.3988 84.957L79.9873 89.5133" stroke="white" stroke-width="1.33241" stroke-miterlimit="10"/>
<path d="M81.237 94.3375C82.6666 94.3375 83.8255 93.1776 83.8255 91.7467C83.8255 90.3159 82.6666 89.1559 81.237 89.1559C79.8074 89.1559 78.6484 90.3159 78.6484 91.7467C78.6484 93.1776 79.8074 94.3375 81.237 94.3375Z" stroke="white" stroke-width="1.33241" stroke-miterlimit="10"/>
<path d="M56.6012 49.043L54.0127 44.4868" stroke="white" stroke-width="1.33241" stroke-miterlimit="10"/>
<path d="M52.763 44.8441C54.1926 44.8441 55.3515 43.6842 55.3515 42.2533C55.3515 40.8225 54.1926 39.6625 52.763 39.6625C51.3334 39.6625 50.1745 40.8225 50.1745 42.2533C50.1745 43.6842 51.3334 44.8441 52.763 44.8441Z" stroke="white" stroke-width="1.33241" stroke-miterlimit="10"/>
<path d="M63.2957 80.6688C64.9718 80.6688 66.3305 79.3088 66.3305 77.6313C66.3305 75.9537 64.9718 74.5938 63.2957 74.5938C61.6196 74.5938 60.2609 75.9537 60.2609 77.6313C60.2609 79.3088 61.6196 80.6688 63.2957 80.6688Z" stroke="white" stroke-width="0.888271" stroke-miterlimit="10"/>
<path d="M79.3625 68.5188C80.8907 68.5188 82.1296 67.2788 82.1296 65.7493C82.1296 64.2197 80.8907 62.9798 79.3625 62.9798C77.8343 62.9798 76.5955 64.2197 76.5955 65.7493C76.5955 67.2788 77.8343 68.5188 79.3625 68.5188Z" stroke="white" stroke-width="0.888271" stroke-miterlimit="10"/>
<path d="M57.6723 64.3198C59.3484 64.3198 60.7072 62.9599 60.7072 61.2823C60.7072 59.6048 59.3484 58.2448 57.6723 58.2448C55.9962 58.2448 54.6375 59.6048 54.6375 61.2823C54.6375 62.9599 55.9962 64.3198 57.6723 64.3198Z" stroke="white" stroke-width="0.888271" stroke-miterlimit="10"/>
<path d="M69.4546 57.7981C71.1307 57.7981 72.4895 56.4382 72.4895 54.7606C72.4895 53.0831 71.1307 51.7231 69.4546 51.7231C67.7785 51.7231 66.4198 53.0831 66.4198 54.7606C66.4198 56.4382 67.7785 57.7981 69.4546 57.7981Z" stroke="white" stroke-width="0.888271" stroke-miterlimit="10"/>
<path d="M69.0084 68.1614C70.1422 68.1614 71.0613 67.2414 71.0613 66.1066C71.0613 64.9718 70.1422 64.0518 69.0084 64.0518C67.8745 64.0518 66.9554 64.9718 66.9554 66.1066C66.9554 67.2414 67.8745 68.1614 69.0084 68.1614Z" stroke="white" stroke-width="0.888271" stroke-miterlimit="10"/>
<path d="M53.2093 72.3603C54.3431 72.3603 55.2623 71.4403 55.2623 70.3055C55.2623 69.1707 54.3431 68.2507 53.2093 68.2507C52.0755 68.2507 51.1563 69.1707 51.1563 70.3055C51.1563 71.4403 52.0755 72.3603 53.2093 72.3603Z" stroke="white" stroke-width="0.888271" stroke-miterlimit="10"/>
<path d="M75.3458 79.686C76.4797 79.686 77.3988 78.7661 77.3988 77.6313C77.3988 76.4964 76.4797 75.5765 75.3458 75.5765C74.212 75.5765 73.2928 76.4964 73.2928 77.6313C73.2928 78.7661 74.212 79.686 75.3458 79.686Z" stroke="white" stroke-width="0.888271" stroke-miterlimit="10"/>
</g>
<defs>
<clipPath id="clip0">
<rect width="134" height="134" rx="67" fill="white"/>
</clipPath>
</defs>
</svg>
