<svg width="30" height="24" viewBox="0 0 30 24" fill="none" xmlns="http://www.w3.org/2000/svg">
<path fill-rule="evenodd" clip-rule="evenodd" d="M17.3735 0.451782C25.2807 0.451782 29.7911 5.70355 29.7911 11.9718C29.7911 18.24 25.2807 23.4918 17.3735 23.4918H9.46631V0.451782H17.3735ZM17.2064 19.4824C22.1624 19.4824 25.2807 16.3765 25.2807 12.0283C25.2807 7.68002 22.1624 4.51766 17.2064 4.51766H13.9767V19.4824H17.2064ZM2.5058 19.7647C3.88972 19.7647 5.0116 18.627 5.0116 17.2235C5.0116 15.8201 3.88972 14.6823 2.5058 14.6823C1.12189 14.6823 0 15.8201 0 17.2235C0 18.627 1.12189 19.7647 2.5058 19.7647ZM5.0116 6.49412C5.0116 7.89757 3.88972 9.03529 2.5058 9.03529C1.12189 9.03529 0 7.89757 0 6.49412C0 5.09067 1.12189 3.95294 2.5058 3.95294C3.88972 3.95294 5.0116 5.09067 5.0116 6.49412Z" fill="black"/>
</svg>
