<svg width="97" height="96" viewBox="0 0 97 96" fill="none" xmlns="http://www.w3.org/2000/svg">
<path d="M49 90C71.6437 90 90 71.4198 90 48.5C90 25.5802 71.6437 7 49 7C26.3563 7 8 25.5802 8 48.5C8 71.4198 26.3563 90 49 90Z" fill="url(#paint0_linear)"/>
<path d="M12.2894 86.2266C25.3403 76.0815 31.025 80.832 39.352 79.8658C45.9975 79.1412 56.8866 72.7803 60.0892 70.6869C63.2919 68.5934 73.1401 63.2793 73.1401 63.2793C73.1401 63.2793 72.0992 59.2535 66.1743 59.2535C58.0075 59.2535 46.0776 72.2167 45.2769 62.0716C44.8766 56.6769 48.4796 50.3966 51.8424 45.7266C53.0434 47.498 54.6447 49.5915 56.246 50.3161C57.2068 50.7992 58.0876 50.7992 58.8082 50.6382V59.0924H79.7857V33.4076H70.9783C76.9033 29.9453 74.5813 26 74.5813 26C70.4979 26.6441 65.6939 27.9324 61.6906 29.1402C56.8866 28.0934 53.844 27.8519 52.643 28.0934C48.7198 28.8181 28.5429 57.2406 18.0542 61.1859C9.88741 64.165 1 64.004 1 64.004" fill="white"/>
<path d="M12.2894 86.2266C25.3403 76.0815 31.025 80.832 39.352 79.8658C45.9975 79.1412 56.8866 72.7803 60.0892 70.6869C63.2919 68.5934 73.1401 63.2793 73.1401 63.2793C73.1401 63.2793 72.0992 59.2535 66.1743 59.2535C58.0075 59.2535 46.0776 72.2167 45.2769 62.0716C44.8766 56.6769 48.4796 50.3966 51.8424 45.7266C53.0434 47.498 54.6447 49.5915 56.246 50.3161C57.2068 50.7992 58.0876 50.7992 58.8082 50.6382V59.0924H79.7857V33.4076H70.9783C76.9032 29.9453 74.5813 26 74.5813 26C70.4979 26.6441 65.6939 27.9324 61.6906 29.1402C56.8866 28.0934 53.844 27.8519 52.643 28.0934C48.7198 28.8181 28.543 57.2406 18.0542 61.1859C9.88741 64.165 1 64.004 1 64.004" stroke="black" stroke-width="2" stroke-miterlimit="10"/>
<path d="M58.8882 59.2535V38.0775" stroke="black" stroke-width="2" stroke-miterlimit="10"/>
<path d="M51.9224 45.8072C53.1234 47.5786 54.7248 49.672 56.3261 50.3967C57.2869 50.8798 58.1676 50.8798 58.8882 50.7187" stroke="black" stroke-miterlimit="10"/>
<path d="M74.5813 26C65.5338 27.9324 53.0434 32.2803 53.0434 32.2803C53.0434 32.2803 47.9191 37.2724 42.3145 42.9891" stroke="black" stroke-miterlimit="10"/>
<path d="M12.2894 86.2266C25.3403 76.0815 31.025 80.832 39.352 79.8658C45.9975 79.1412 56.8866 72.7803 60.0893 70.6869C63.2919 68.5934 73.1401 63.2793 73.1401 63.2793C73.1401 63.2793 72.0993 59.2535 66.1743 59.2535C58.0075 59.2535 46.0776 72.2167 45.2769 62.0716C44.4762 51.9264 57.4471 38.5606 57.4471 38.5606C57.4471 38.5606 58.0876 38.4801 67.5355 34.7763C76.9833 31.0726 74.5013 26 74.5013 26" stroke="black" stroke-width="2" stroke-miterlimit="10"/>
<path d="M61.6906 29.1401C56.8866 28.0934 53.844 27.8519 52.643 28.0934C48.7198 28.8181 28.543 57.2405 18.0542 61.1859C9.88741 64.165 1 64.004 1 64.004" stroke="black" stroke-miterlimit="10"/>
<path d="M55.7656 40.493C55.7656 40.493 56.6464 42.7475 59.2085 45.4046" stroke="black" stroke-miterlimit="10"/>
<path d="M79.8657 38.5607H59.2085" stroke="black" stroke-miterlimit="10"/>
<path d="M79.8657 43.7137H59.2085" stroke="black" stroke-miterlimit="10"/>
<path d="M79.8657 48.8668H59.2085" stroke="black" stroke-miterlimit="10"/>
<path d="M59.2085 54.0199H79.8657" stroke="black" stroke-miterlimit="10"/>
<defs>
<linearGradient id="paint0_linear" x1="8" y1="7" x2="102.9" y2="26.1841" gradientUnits="userSpaceOnUse">
<stop stop-color="#98FFE6"/>
<stop offset="1" stop-color="#50EFF5"/>
</linearGradient>
</defs>
</svg>
