<svg width="121" height="120" viewBox="0 0 121 120" fill="none" xmlns="http://www.w3.org/2000/svg">
<path d="M60.5 113C89.7711 113 113.5 89.2711 113.5 60C113.5 30.7289 89.7711 7 60.5 7C31.2289 7 7.5 30.7289 7.5 60C7.5 89.2711 31.2289 113 60.5 113Z" fill="url(#paint0_linear)"/>
<g filter="url(#filter0_d)">
<path d="M47.5343 81V73.377H59.3783V43.893H58.8113L49.8653 55.611L43.8173 50.886L54.3383 37.026H68.8283V73.377H78.1523V81H47.5343Z" fill="white"/>
<path d="M46.5343 81C46.5343 81.5523 46.982 82 47.5343 82H78.1523C78.7046 82 79.1523 81.5523 79.1523 81V73.377C79.1523 72.8247 78.7046 72.377 78.1523 72.377H69.8283V37.026C69.8283 36.4737 69.3806 36.026 68.8283 36.026H54.3383C54.0256 36.026 53.7309 36.1723 53.5418 36.4214L43.0208 50.2814C42.6902 50.717 42.7707 51.3374 43.2017 51.674L49.2497 56.399C49.4602 56.5635 49.7278 56.6369 49.9927 56.6028C50.2577 56.5688 50.4981 56.4302 50.6602 56.2178L58.3783 46.1081V72.377H47.5343C46.982 72.377 46.5343 72.8247 46.5343 73.377V81Z" stroke="black" stroke-width="2" stroke-linejoin="round"/>
</g>
<defs>
<filter id="filter0_d" x="36.8172" y="30.026" width="58.3351" height="67.974" filterUnits="userSpaceOnUse" color-interpolation-filters="sRGB">
<feFlood flood-opacity="0" result="BackgroundImageFix"/>
<feColorMatrix in="SourceAlpha" type="matrix" values="0 0 0 0 0 0 0 0 0 0 0 0 0 0 0 0 0 0 127 0"/>
<feOffset dx="5" dy="5"/>
<feGaussianBlur stdDeviation="5"/>
<feColorMatrix type="matrix" values="0 0 0 0 0 0 0 0 0 0.627451 0 0 0 0 0.592157 0 0 0 0.4 0"/>
<feBlend mode="normal" in2="BackgroundImageFix" result="effect1_dropShadow"/>
<feBlend mode="normal" in="SourceGraphic" in2="effect1_dropShadow" result="shape"/>
</filter>
<linearGradient id="paint0_linear" x1="7.5" y1="7" x2="130.058" y2="32.0772" gradientUnits="userSpaceOnUse">
<stop stop-color="#98FFE6"/>
<stop offset="1" stop-color="#50EFF5"/>
</linearGradient>
</defs>
</svg>
