<svg width="98" height="96" viewBox="0 0 98 96" fill="none" xmlns="http://www.w3.org/2000/svg">
<path d="M50 90C72.6437 90 91 71.4198 91 48.5C91 25.5802 72.6437 7 50 7C27.3563 7 9 25.5802 9 48.5C9 71.4198 27.3563 90 50 90Z" fill="url(#paint0_linear)"/>
<path d="M68.9736 62.9464C82.3752 62.9464 93.2394 52.0147 93.2394 38.5298C93.2394 25.045 82.3752 14.1133 68.9736 14.1133C55.5719 14.1133 44.7078 25.045 44.7078 38.5298C44.7078 52.0147 55.5719 62.9464 68.9736 62.9464Z" fill="white" stroke="black" stroke-width="2" stroke-miterlimit="10"/>
<path d="M68.9736 62.9464C61.2146 62.9464 54.9009 52.001 54.9009 38.5298C54.9009 25.0587 61.2146 14.1133 68.9736 14.1133" stroke="black" stroke-miterlimit="10"/>
<path d="M68.9736 62.9464C61.2146 62.9464 54.9009 52.001 54.9009 38.5298C54.9009 25.0587 61.2146 14.1133 68.9736 14.1133" stroke="black" stroke-miterlimit="10"/>
<path d="M68.9736 62.9464C76.7325 62.9464 83.0462 52.001 83.0462 38.5298C83.0462 25.0587 76.7325 14.1133 68.9736 14.1133V62.9464Z" stroke="black" stroke-miterlimit="10"/>
<path d="M93.2394 38.5298H44.7078" stroke="black" stroke-miterlimit="10"/>
<path d="M91.3377 29.1919H46.5334" stroke="black" stroke-miterlimit="10"/>
<path d="M84.4915 19.7773H53.4556" stroke="black" stroke-miterlimit="10"/>
<path d="M46.5334 47.9443H91.3377" stroke="black" stroke-miterlimit="10"/>
<path d="M53.4556 57.3589H84.4155" stroke="black" stroke-miterlimit="10"/>
<path d="M20.1195 87.815C20.1195 87.815 24.1631 82.3346 27.7941 78.1829C31.5076 74.1142 41.0802 72.9517 44.9588 70.7928C48.8373 68.6339 49.415 62.7384 51.1479 57.5902C59.8953 50.4492 70.5407 41.0662 71.9436 38.9073C74.6669 34.7556 71.6961 31.8494 67.9 35.0877C64.8467 37.6618 57.7497 43.1421 51.8906 47.0448C50.8179 44.2216 48.8373 42.3948 46.6092 42.9761C45.4539 38.7413 41.6578 38.9073 41.6578 38.9073C38.687 34.7556 30.5173 36.9975 26.4737 40.1529C22.4301 43.3082 17.2312 56.9259 13.2701 62.2402C9.30901 67.5544 8.48378 69.2151 1.30432 72.9517" fill="white"/>
<path d="M20.1195 87.8149C20.1195 87.8149 24.1631 82.3346 27.7941 78.1829C31.5076 74.1142 41.0802 72.9517 44.9588 70.7928C48.8374 68.6339 49.7451 61.6589 51.4781 56.5107" stroke="black" stroke-width="2" stroke-miterlimit="10"/>
<path d="M41.6578 38.9073C38.687 34.7556 31.5076 36.9975 26.4737 40.1529C22.1 42.893 17.3137 56.9259 13.3526 62.2402C9.39153 67.5544 8.5663 69.2151 1.38684 72.9517" stroke="black" stroke-width="2" stroke-miterlimit="10"/>
<path d="M46.6092 42.893C44.1335 35.752 35.056 40.7341 35.056 40.7341L46.6092 42.893Z" fill="white"/>
<path d="M46.6092 42.893C44.1335 35.752 35.056 40.7341 35.056 40.7341" stroke="black" stroke-width="2" stroke-miterlimit="10"/>
<path d="M39.7599 44.4707C39.7599 44.4707 49.9927 39.3226 51.8907 47.46L39.7599 44.4707Z" fill="white"/>
<path d="M39.7599 44.4707C39.7599 44.4707 49.9927 39.3226 51.8907 47.46" stroke="black" stroke-width="2" stroke-miterlimit="10"/>
<path d="M47.2694 49.3698C53.3761 45.7162 64.1865 38.2431 67.9 35.0877C71.6135 31.9324 74.6669 34.8386 71.9436 38.9073C69.798 42.0627 46.1966 60.3304 40.9977 65.3125" fill="white"/>
<path d="M47.2694 49.3698C53.3761 45.7162 64.1865 38.2431 67.9 35.0877C71.6135 31.9324 74.6669 34.8386 71.9436 38.9073C69.798 42.0627 46.1966 60.3304 40.9977 65.3125" stroke="black" stroke-width="2" stroke-miterlimit="10"/>
<defs>
<linearGradient id="paint0_linear" x1="9" y1="7" x2="103.9" y2="26.1841" gradientUnits="userSpaceOnUse">
<stop stop-color="#98FFE6"/>
<stop offset="1" stop-color="#50EFF5"/>
</linearGradient>
</defs>
</svg>
