<svg width="96" height="96" viewBox="0 0 96 96" fill="none" xmlns="http://www.w3.org/2000/svg">
<path d="M48 90C70.6437 90 89 71.4198 89 48.5C89 25.5802 70.6437 7 48 7C25.3563 7 7 25.5802 7 48.5C7 71.4198 25.3563 90 48 90Z" fill="url(#paint0_linear)"/>
<g clip-path="url(#clip0)">
<path d="M24.4821 95.5691C24.4821 95.5691 31.3603 84.7238 33.868 83.1437C36.3757 81.5636 49.6306 72.5857 49.6306 72.5857C49.6306 72.5857 67.1126 63.0332 68.7605 62.3149C74.4924 59.7293 76.2119 55.2763 74.9939 53.6961C73.8475 52.116 72.6295 51.9724 70.9816 52.9061C69.2621 53.8398 61.8823 57.3591 61.8823 57.3591L63.8168 49.3867C63.8168 49.3867 66.8977 48.0939 72.3429 45.221C77.7882 42.3481 75.2805 35.884 71.3399 37.2486C69.692 37.8232 64.1751 40.5525 64.1751 40.5525C64.1751 40.5525 73.4177 36.3867 75.5671 33.7293C77.5016 31.2155 75.2805 26.3315 71.5548 27.768C67.6142 29.2763 51.7083 37.7514 51.7083 37.7514C51.7083 37.7514 58.085 32.7956 64.0318 26.7624C70.0502 20.7293 74.4207 15.8453 72.4862 13.4751C70.5517 11.1768 65.2498 14.337 58.5865 20.0829C53.4995 24.4641 39.5282 37.1768 33.2948 42.8508C33.6531 41.1989 34.083 39.1879 34.5128 37.6796C37.0922 28.9171 34.2263 22.1658 31.1454 22.1658C31.1454 22.1658 24.8404 38.7569 23.6224 42.8508C22.4044 46.9448 19.2518 56.1381 18.3921 62.2431C17.5323 68.2763 7.50159 78.9061 7.50159 78.9061" fill="white"/>
<path d="M24.4821 95.5691C24.4821 95.5691 31.3603 84.7238 33.868 83.1437C36.3757 81.5636 49.6306 72.5857 49.6306 72.5857C49.6306 72.5857 67.1126 63.0332 68.7605 62.3149C74.4924 59.7293 76.2119 55.2763 74.9939 53.6961C73.8475 52.116 72.6295 51.9724 70.9816 52.9061C69.2621 53.8398 61.8823 57.3591 61.8823 57.3591L63.8168 49.3867C63.8168 49.3867 66.8977 48.0939 72.3429 45.221C77.7882 42.3481 75.2805 35.884 71.3399 37.2486C69.692 37.8232 64.1751 40.5525 64.1751 40.5525C64.1751 40.5525 73.4177 36.3867 75.5671 33.7293C77.5016 31.2155 75.2805 26.3315 71.5548 27.768C67.6142 29.2763 51.7083 37.7514 51.7083 37.7514C51.7083 37.7514 58.085 32.7956 64.0318 26.7624C70.0502 20.7293 74.4207 15.8453 72.4862 13.4751C70.5517 11.1768 65.2498 14.337 58.5865 20.0829C53.4995 24.4641 39.5282 37.1768 33.2948 42.8508C33.6531 41.1989 34.083 39.1879 34.5128 37.6796C37.0922 28.9171 34.2263 22.1658 31.1454 22.1658C31.1454 22.1658 24.8404 38.7569 23.6224 42.8508C22.4044 46.9448 19.2518 56.1381 18.3921 62.2431C17.5323 68.2763 7.50159 78.9061 7.50159 78.9061" stroke="black" stroke-width="2" stroke-miterlimit="10"/>
<path d="M33.5814 66.4807C33.5814 66.4807 36.0891 61.8122 36.0891 56.7127C36.0891 51.6133 32.7216 45.9392 32.7216 45.9392C32.7216 45.9392 33.6531 40.6961 34.5128 37.6077C37.0922 28.8453 34.2262 22.0939 31.1454 22.0939" stroke="black" stroke-width="2" stroke-miterlimit="10"/>
<path d="M63.8884 72.2265H41.6059C38.8833 72.2265 36.7339 70.0719 36.7339 67.3426V10.6022C36.7339 7.87296 38.8833 5.71826 41.6059 5.71826H63.8884C66.6111 5.71826 68.7605 7.87296 68.7605 10.6022V67.3426C68.7605 70.0719 66.5394 72.2265 63.8884 72.2265Z" fill="white" stroke="black" stroke-width="2" stroke-miterlimit="10"/>
<path d="M46.478 10.0939H56.0072" stroke="black" stroke-miterlimit="10"/>
<path d="M57.6551 10.0939H58.9448" stroke="black" stroke-miterlimit="10"/>
<path d="M63.0287 29.8508L52.783 25.9006L42.7523 29.8508C42.7523 29.8508 42.7523 34.5194 42.7523 38.1823C42.7523 48.0221 52.8547 52.9779 52.8547 52.9779C52.8547 52.9779 63.0287 47.9503 63.0287 38.1823C63.0287 33.873 63.0287 29.8508 63.0287 29.8508Z" fill="white" stroke="black" stroke-miterlimit="10"/>
<path d="M47.3378 38.2542L51.7083 42.6354L58.9447 35.3812" fill="white"/>
<path d="M47.3378 38.2542L51.7083 42.6354L58.9447 35.3812" stroke="black" stroke-miterlimit="10"/>
</g>
<defs>
<linearGradient id="paint0_linear" x1="7" y1="7" x2="101.9" y2="26.1841" gradientUnits="userSpaceOnUse">
<stop stop-color="#98FFE6"/>
<stop offset="1" stop-color="#50EFF5"/>
</linearGradient>
<clipPath id="clip0">
<rect width="70" height="91" fill="white" transform="translate(7 5)"/>
</clipPath>
</defs>
</svg>
