<svg width="600" height="640" viewBox="0 0 600 640" fill="none" xmlns="http://www.w3.org/2000/svg">
<g filter="url(#filter0_d)">
<path d="M93.7429 359.101C92.9806 359.319 92.2183 359.646 91.456 359.864C67.0622 368.029 40.7082 354.964 32.4317 330.577C24.2642 306.189 37.3323 279.842 61.726 271.568C62.4884 271.35 63.2507 271.023 64.013 270.806C88.4067 262.64 114.761 275.705 123.037 300.092C131.205 324.48 118.137 350.827 93.7429 359.101Z" fill="white" stroke="#231F20" stroke-width="2" stroke-miterlimit="10"/>
<path d="M76.6455 358.993C100.583 358.993 119.988 339.593 119.988 315.661C119.988 291.73 100.583 272.33 76.6455 272.33C52.7081 272.33 33.303 291.73 33.303 315.661C33.303 339.593 52.7081 358.993 76.6455 358.993Z" fill="white" stroke="#231F20" stroke-miterlimit="10"/>
<path d="M89.8225 342.008L77.7345 345.492L85.7932 373.582C85.7932 373.582 86.9911 373.799 92.0005 372.384C96.9011 370.969 97.8812 370.098 97.8812 370.098L89.8225 342.008Z" fill="white" stroke="#231F20" stroke-width="2" stroke-miterlimit="10"/>
<path d="M87.5355 344.404C86.991 344.621 85.0308 345.275 84.5952 345.383C68.4779 350.827 51.0538 342.117 45.6087 326.113C40.1637 310 48.8757 292.58 64.8842 287.136C65.4287 286.919 67.3889 286.266 67.8245 286.157C83.9418 280.713 101.366 289.423 106.811 305.427C112.256 321.649 103.653 339.069 87.5355 344.404Z" fill="white" stroke="#231F20" stroke-width="2" stroke-miterlimit="10"/>
<path d="M74.7942 343.533C89.8302 343.533 102.019 331.347 102.019 316.314C102.019 301.282 89.8302 289.096 74.7942 289.096C59.7581 289.096 47.569 301.282 47.569 316.314C47.569 331.347 59.7581 343.533 74.7942 343.533Z" fill="white" stroke="#231F20" stroke-miterlimit="10"/>
<path d="M74.7941 338.198C86.8831 338.198 96.6832 328.4 96.6832 316.314C96.6832 304.229 86.8831 294.431 74.7941 294.431C62.7051 294.431 52.905 304.229 52.905 316.314C52.905 328.4 62.7051 338.198 74.7941 338.198Z" fill="white" stroke="#231F20" stroke-miterlimit="10"/>
<path d="M74.7942 317.948C75.6963 317.948 76.4277 317.216 76.4277 316.314C76.4277 315.413 75.6963 314.681 74.7942 314.681C73.892 314.681 73.1606 315.413 73.1606 316.314C73.1606 317.216 73.892 317.948 74.7942 317.948Z" fill="white" stroke="#231F20" stroke-width="2" stroke-miterlimit="10"/>
<path d="M260.143 516.096C230.305 516.096 201.337 509.128 175.419 495.301C130.769 471.458 98.6434 429.324 82.635 373.582C82.635 373.582 85.2486 372.275 91.3471 370.533C97.4455 368.791 100.386 368.465 100.386 368.465C114.979 419.308 143.946 457.523 184.131 478.971C223.444 499.983 270.489 503.358 316.772 488.551C380.261 468.192 396.596 427.8 400.625 405.59C406.724 372.275 393.874 337.327 367.737 316.532C340.077 294.431 303.159 291.6 263.955 308.367L256.659 291.383C301.743 272.003 346.502 275.923 379.281 302.052C410.644 327.093 426.217 369.009 418.812 408.965C415 429.978 404.873 449.575 389.735 465.797C372.965 483.652 350.313 497.261 322.435 506.189C301.743 512.83 280.726 516.096 260.143 516.096Z" fill="white" stroke="#231F20" stroke-width="2" stroke-miterlimit="10"/>
<path d="M336.918 598.078C311.871 598.078 288.022 592.961 266.024 582.727C227.582 564.871 197.308 532.318 180.646 491.273C165.508 453.821 163.439 413.756 175.092 378.263C187.942 338.742 216.256 308.693 256.767 291.274L264.064 308.258C228.562 323.5 203.842 349.738 192.625 384.033C182.388 415.389 184.239 450.99 197.743 484.305C212.663 520.996 239.67 550.065 273.756 565.96C312.96 584.251 359.461 584.033 408.248 565.416C467.708 542.77 495.587 490.511 491.122 410.163L509.635 409.183C512.14 453.712 505.17 491.055 488.944 520.233C472.936 548.976 447.997 570.097 414.891 582.727C388.211 592.961 361.966 598.078 336.918 598.078Z" fill="white" stroke="#231F20" stroke-width="2" stroke-miterlimit="10"/>
<path d="M557.878 276.685C557.552 274.507 557.007 273.745 554.829 273.854C554.393 273.854 553.958 273.963 553.413 273.963C551.671 255.454 548.839 232.918 545.681 211.034C540.781 177.175 535.336 148.977 530.653 131.775C521.07 97.371 510.289 76.794 495.478 64.9269C493.191 63.076 490.904 61.5518 488.4 60.1364C494.171 58.5034 500.923 57.5235 508.655 56.8703C508.982 57.6324 509.308 58.1767 510.071 58.83C513.882 61.8784 520.743 63.5115 530.109 62.8583C534.573 62.5317 537.841 56.9791 537.405 50.3379C536.969 43.6966 532.94 38.6885 528.475 39.0151C519.11 39.6683 512.576 42.2813 509.2 45.7652C508.764 46.3096 508.328 46.9628 508.219 47.8338C497.22 48.7048 488.617 50.3379 481.212 52.9508C479.47 53.6041 477.727 54.2573 476.094 54.9106C474.351 54.3662 472.609 53.9307 470.758 53.6041C462.917 52.0799 453.987 51.6444 442.879 52.2976C442.552 51.3177 442.117 50.6645 441.681 50.3379C437.87 47.2894 431.009 45.6564 421.643 46.3096C417.178 46.6362 413.911 52.1887 414.347 58.83C414.783 65.4712 418.812 70.4794 423.277 70.1528C432.642 69.4995 439.176 66.8866 442.552 63.4026C442.988 62.8583 443.423 62.3139 443.532 61.3341C451.591 60.8986 458.452 61.0074 464.55 61.7695C462.263 63.5115 460.194 65.4712 458.234 67.5398C445.275 81.3667 437.325 103.25 432.642 138.634C430.246 156.38 428.831 185.014 428.613 219.2C428.504 241.192 428.831 263.947 429.593 282.564C429.049 282.564 428.613 282.673 428.286 282.673C425.89 282.999 425.673 283.435 425.673 285.83C425.564 290.62 425.673 296.717 425.89 300.201C426.108 303.685 427.633 305.645 427.851 308.693C429.702 330.577 434.603 357.686 453.116 374.344C461.392 381.856 470.104 386.429 481.974 387.844C485.786 388.279 488.617 391.328 488.944 395.138L490.142 412.449C490.251 413.32 490.904 413.973 491.775 414.082C493.627 414.191 497.112 414.409 501.141 414.082C505.388 413.756 508.655 413.211 510.506 412.776C511.378 412.558 511.922 411.796 511.922 410.925C511.595 406.461 510.724 393.505 510.724 393.505C510.506 389.804 512.902 386.32 516.496 385.34C528.039 382.291 535.989 376.521 543.177 368.029C559.185 348.976 560.383 321.431 559.185 299.548C558.967 296.5 560.274 294.322 559.947 290.838C559.403 287.463 558.532 281.366 557.878 276.685ZM540.454 278.535C541.108 284.85 541.652 289.532 541.979 292.58C542.414 296.282 543.612 298.133 543.83 300.201C545.028 319.472 543.83 343.424 531.306 358.339C523.901 367.049 513.447 371.84 499.072 372.819L497.003 372.928C482.628 373.908 471.629 370.642 463.135 363.021C448.651 349.956 444.295 326.44 442.77 307.169C442.661 304.992 443.641 303.141 443.532 299.33C443.423 296.282 443.315 291.6 443.097 285.177C442.988 282.999 442.226 282.237 440.156 282.128C439.83 282.128 439.285 282.128 438.523 282.128C436.781 240.321 436.998 173.364 441.463 139.723C445.819 106.843 453.225 85.8305 464.768 73.6367C468.253 69.935 472.173 66.9954 476.638 64.6002C481.43 66.3422 485.786 68.7374 489.706 72.0036C502.774 82.4554 512.902 102.27 521.832 134.279C530.871 167.05 540.345 233.353 544.375 274.943C543.721 275.052 543.177 275.052 542.85 275.16C540.454 275.487 540.236 276.467 540.454 278.535Z" fill="white" stroke="#231F20" stroke-width="3" stroke-miterlimit="10"/>
<path d="M443.641 56.8702C443.423 53.2774 442.443 51.1 441.681 50.4467C437.87 47.3983 431.009 45.7652 421.643 46.4184C417.178 46.7451 413.911 52.2976 414.347 58.9388C414.783 65.5801 418.812 70.5882 423.277 70.2616C432.642 69.6084 439.176 66.9954 442.552 63.5115C443.532 62.4228 443.968 61.0074 443.641 56.8702Z" fill="white" stroke="#231F20" stroke-miterlimit="10"/>
<path d="M545.681 211.143C540.781 177.284 535.336 149.086 530.653 131.884C521.07 97.4798 510.289 76.9028 495.478 65.0357C488.399 59.3743 480.341 55.6726 470.758 53.7129C462.699 52.0798 453.442 51.6443 441.681 52.5153C441.028 52.5153 440.483 54.5839 440.701 57.088C440.919 59.592 441.681 61.5517 442.334 61.5517C464.877 60.0275 478.598 63.1848 489.706 72.1124C502.774 82.5642 512.902 102.379 521.832 134.388C532.287 172.058 543.177 254.148 545.79 291.927L554.829 291.274C553.413 271.023 549.928 240.321 545.681 211.143Z" fill="white" stroke="#231F20" stroke-miterlimit="10"/>
<path d="M528.475 39.0151C519.109 39.6683 512.575 42.2812 509.199 45.7652C508.11 46.8539 507.784 48.8136 508.11 52.4064C508.328 55.7815 508.437 57.4146 510.18 58.8299C513.991 61.8784 520.852 63.5115 530.217 62.8582C534.682 62.5316 537.949 56.9791 537.514 50.3378C536.86 43.8055 532.94 38.6884 528.475 39.0151Z" fill="white" stroke="#231F20" stroke-miterlimit="10"/>
<path d="M428.504 219.2C428.722 185.014 430.138 156.38 432.533 138.634C437.216 103.25 445.166 81.3667 458.125 67.5398C464.332 60.8985 471.847 56.1081 480.994 52.9508C488.726 50.229 497.874 48.5959 509.526 47.7249C510.18 47.7249 510.724 49.6846 510.942 52.1887C511.16 54.6928 510.724 56.7614 510.18 56.7614C487.746 58.3945 474.46 63.2937 464.659 73.7455C453.225 85.9393 445.819 106.952 441.354 139.831C436.127 178.59 436.672 261.334 439.285 299.221L430.246 299.875C429.049 279.624 428.286 248.704 428.504 219.2Z" fill="white" stroke="#231F20" stroke-miterlimit="10"/>
<path d="M489.924 412.449L488.726 395.138C488.508 391.328 485.568 388.279 481.757 387.844C469.886 386.32 461.174 381.747 452.898 374.344C434.385 357.686 429.484 330.577 427.633 308.693C427.415 305.645 425.89 303.685 425.673 300.201C425.455 296.826 425.346 290.62 425.455 285.83C425.564 283.435 425.782 282.89 428.068 282.673C430.246 282.455 438.523 282.237 440.048 282.237C442.117 282.237 442.879 282.999 442.988 285.286C443.097 291.709 443.315 296.391 443.423 299.439C443.532 303.25 442.552 305.1 442.661 307.278C444.077 326.548 448.542 350.065 463.026 363.13C471.52 370.751 482.628 374.017 496.894 373.037L498.963 372.928C513.338 371.948 523.792 367.158 531.198 358.448C543.721 343.533 544.919 319.581 543.721 300.31C543.612 298.133 542.305 296.391 541.87 292.689C541.543 289.641 540.999 284.959 540.345 278.644C540.127 276.576 540.345 275.705 542.85 275.269C544.483 274.943 551.998 274.181 554.72 274.072C557.007 273.963 557.443 274.725 557.769 276.902C558.423 281.584 559.294 287.681 559.512 291.165C559.73 294.649 558.532 296.826 558.749 299.875C559.947 321.758 558.749 349.303 542.741 368.356C535.554 376.848 527.604 382.618 516.06 385.666C512.467 386.646 509.962 390.021 510.289 393.832C510.289 393.832 511.16 406.788 511.486 411.252C511.595 412.123 510.942 412.885 510.071 413.102C508.328 413.538 505.061 414.082 500.705 414.409C496.676 414.735 493.3 414.518 491.34 414.409C490.686 413.973 489.924 413.32 489.924 412.449Z" fill="white" stroke="#231F20" stroke-miterlimit="10"/>
</g>
<g filter="url(#filter1_d)">
<path d="M354.381 371.617L240.036 405.497C228.96 408.779 217.345 402.466 214.096 391.5L134.852 124.052C131.587 113.032 137.904 101.464 148.981 98.1826L263.38 64.2866C274.456 61.0048 286.056 67.2635 289.321 78.2834L368.564 345.732C371.759 356.714 365.458 368.335 354.381 371.617Z" fill="white" stroke="black" stroke-width="2" stroke-miterlimit="10"/>
<path d="M264.486 70.0114L252.649 73.5185C250.695 74.0976 249.53 76.1468 250.122 78.1455L250.522 79.496C251.707 83.4934 249.393 87.6457 245.43 88.8201L177.398 108.978C173.381 110.168 169.217 107.876 168.048 103.933L167.648 102.582C167.072 100.637 165.017 99.4834 163.008 100.079L151.172 103.586C142.974 106.015 138.302 114.568 140.719 122.725L219.723 389.363C222.14 397.52 230.716 402.147 238.915 399.718L352.228 366.144C360.427 363.715 365.098 355.162 362.681 347.005L283.678 80.3668C281.261 72.2099 272.684 67.5822 264.486 70.0114Z" fill="white" stroke="black" stroke-miterlimit="10"/>
<path d="M193.893 96.275C194.762 96.0174 195.259 95.1071 195.003 94.2419C194.747 93.3768 193.834 92.8843 192.964 93.1419C192.095 93.3996 191.598 94.3098 191.854 95.175C192.11 96.0402 193.023 96.5327 193.893 96.275Z" fill="white" stroke="black" stroke-miterlimit="10"/>
<path d="M224.841 87.1052C225.709 86.8478 226.207 85.9365 225.951 85.0722C225.695 84.2079 224.781 83.7147 223.912 83.9721L201.054 90.7449C200.186 91.0023 199.688 91.9137 199.944 92.778C200.2 93.6423 201.114 94.1354 201.983 93.878C204.534 93.1219 224.841 87.1052 224.841 87.1052Z" fill="white" stroke="black" stroke-miterlimit="10"/>
<path d="M317.398 368.59C318.267 368.333 318.764 367.421 318.508 366.557C318.252 365.693 317.338 365.199 316.47 365.457L268.473 379.678C267.604 379.935 267.106 380.847 267.362 381.711C267.619 382.575 268.532 383.068 269.401 382.811C271.953 382.055 317.398 368.59 317.398 368.59Z" fill="white" stroke="black" stroke-miterlimit="10"/>
<g opacity="0.2">
<path opacity="0.4" d="M309.156 249.591L207.842 279.61C205.833 280.205 203.724 279.067 203.132 277.068C202.54 275.07 203.688 272.966 205.697 272.371L307.011 242.352C309.02 241.757 311.129 242.895 311.722 244.894C312.314 246.892 311.165 248.996 309.156 249.591Z" fill="black"/>
<path opacity="0.4" d="M320.139 279.889L215.133 311.002C214.101 311.308 213.047 310.739 212.743 309.713C212.438 308.686 213.013 307.635 214.044 307.329L318.996 276.232C320.028 275.927 321.082 276.496 321.387 277.522C321.691 278.548 321.116 279.6 320.139 279.889Z" fill="black"/>
<path opacity="0.4" d="M322.892 289.181L217.886 320.294C216.854 320.599 215.8 320.03 215.495 319.004C215.191 317.978 215.766 316.926 216.797 316.62L321.749 285.524C322.781 285.218 323.835 285.787 324.14 286.813C324.444 287.84 323.869 288.891 322.892 289.181Z" fill="black"/>
<path opacity="0.4" d="M317.539 300.815L228.713 327.134C227.681 327.44 226.626 326.871 226.322 325.844C226.018 324.818 226.593 323.766 227.624 323.461L316.451 297.142C317.482 296.836 318.537 297.405 318.841 298.431C319.091 299.474 318.516 300.525 317.539 300.815Z" fill="black"/>
<path opacity="0.4" d="M302.135 315.604L249.686 331.144C248.655 331.45 247.6 330.881 247.296 329.854C246.992 328.828 247.566 327.776 248.598 327.471L301.101 311.914C302.133 311.609 303.187 312.178 303.491 313.204C303.741 314.246 303.167 315.298 302.135 315.604Z" fill="black"/>
<path opacity="0.4" d="M287.873 270.059L236.835 285.181C234.827 285.776 232.718 284.638 232.125 282.639C231.533 280.641 232.682 278.537 234.691 277.942L285.728 262.82C287.737 262.225 289.846 263.363 290.438 265.361C291.03 267.36 289.882 269.463 287.873 270.059Z" fill="black"/>
</g>
<g opacity="0.6">
<path d="M220.724 168.58C221.273 167.845 221.893 167.185 222.385 166.419C223.201 165.127 224.004 163.792 224.763 162.47C225.043 161.958 225.375 161.621 226.026 161.714C226.184 161.763 226.448 161.684 226.568 161.601C226.687 161.518 226.679 161.33 226.79 161.058C226.412 161.075 226.121 161.066 225.8 161.113C223.844 161.311 222.303 160.479 220.892 159.276C219.919 158.419 219.228 157.383 218.494 156.361C218.008 155.693 217.624 155.044 217.139 154.377C216.264 153.205 215.156 152.865 213.72 153.195C211.313 153.813 209.195 154.917 207.435 156.584C204.203 159.593 201.028 162.633 197.796 165.642C194.984 168.288 191.808 170.517 188.358 172.303C187.365 172.835 186.328 173.381 185.322 173.87C184.404 174.333 183.408 174.532 182.5 173.895C182.329 173.803 182.22 173.596 182.054 173.359C182.72 173.019 183.267 172.761 183.845 172.447C187.12 170.713 190.285 168.774 193.061 166.329C195.567 164.108 197.973 161.868 200.422 159.616C200.948 159.126 201.461 158.592 201.931 158.072C204.377 155.486 207.226 153.45 210.324 151.768C211.644 151.043 213.072 150.525 214.522 150.238C216.28 149.861 217.712 150.486 218.784 151.838C219.466 152.685 219.999 153.672 220.606 154.59C221.144 155.432 221.712 156.218 222.28 157.004C222.849 157.789 223.666 158.12 224.665 158.253C224.452 157.696 224.278 157.271 224.039 156.626C226.197 157.275 227.929 156.809 229.222 155.186C229.886 156.134 229.85 156.335 228.71 157.341C228.987 157.306 229.189 157.342 229.309 157.259C230.462 156.297 231.26 155.106 231.215 153.498C231.196 151.977 231.177 150.456 231.202 148.922C231.209 148.299 231.349 147.638 231.502 147.02C231.856 145.627 232.859 144.805 234.111 144.339C236.497 143.489 238.932 143.292 241.476 143.301C244.399 143.294 247.244 143.835 250.102 144.419C253.233 145.113 256.4 145.606 259.611 146.086C261.115 146.308 262.651 146.473 264.147 146.507C266.269 146.546 268.421 146.529 270.561 146.467C271.608 146.443 272.661 146.274 273.74 146.193C274.02 146.492 273.865 146.776 273.696 147.017C273.391 147.442 273.168 147.985 272.569 148.067C271.617 148.253 270.692 148.528 269.758 148.613C266.913 148.884 264.029 149.023 261.2 148.859C258.995 148.701 256.884 148.373 254.703 147.97C250.846 147.252 246.932 146.503 243.057 145.886C240.788 145.509 238.568 145.785 236.39 146.526C234.772 147.053 234.23 147.977 234.148 149.48C234.092 150.26 234.123 151.014 234.098 151.737C234.052 153.039 234.05 154.327 233.657 155.589C233.398 156.333 233.095 157.091 232.678 157.787C232.131 158.856 231.164 159.476 230.114 159.978C229.982 160.017 229.863 160.1 229.7 160.196C229.752 160.372 229.791 160.503 229.842 160.679C230.278 160.693 230.618 160.544 230.874 160.277C231.263 159.971 231.655 159.999 232.054 160.214C232.397 160.399 232.739 160.584 233.082 160.768C234.952 161.741 236.823 162.713 238.885 163.199C239.072 164.48 238.66 165.031 237.436 165.108C235.6 165.222 233.961 164.706 232.332 163.901C231.761 163.593 231.146 163.298 230.575 162.99C230.516 163.437 230.695 163.718 231.095 163.933C232.249 164.593 233.378 165.165 234.661 165.453C234.965 165.506 235.237 165.616 235.554 165.713C235.28 166.891 236.535 166.758 236.976 167.438C235.687 168.106 234.837 169.122 234.364 170.598C233.762 170.347 233.23 170.17 232.584 169.932C232.631 170.252 232.665 170.528 232.73 170.748C233.172 172.239 233.627 173.774 234.024 175.278C234.193 175.848 234.274 176.444 234.399 177.028C233.515 177.767 233.162 177.871 231.912 177.86C231.237 175.579 230.504 173.268 229.763 170.768C229.32 171.376 228.97 171.814 228.602 172.352C227.414 171.416 226.179 170.971 224.603 171.152C224.807 170.71 224.95 170.382 225.149 170.084C225.455 169.659 225.351 169.309 224.925 169.005C225.488 168.314 226.032 167.723 226.462 167.071C226.861 166.476 227.247 165.837 227.589 165.211C227.776 164.869 227.763 164.825 227.453 164.106C227.112 164.732 226.845 165.288 226.49 165.87C225.612 167.275 224.549 168.544 223.066 169.365C221.959 169.836 221.396 169.717 220.724 168.58Z" fill="black"/>
<path d="M237.274 188.675C238.013 187.931 238.557 187.34 239.159 186.78C239.973 185.967 240.4 184.982 240.282 183.776C240.178 182.614 239.438 181.736 238.276 181.699C237.405 181.671 236.502 181.7 235.67 181.803C234.749 181.933 233.811 182.163 232.859 182.35C230.401 182.792 227.919 183.479 225.393 183.369C223.752 183.331 222.102 183.104 220.636 182.203C217.603 180.382 217.097 175.761 220.317 173.519C221.911 172.427 223.649 171.817 225.599 171.763C226.893 171.762 227.876 172.329 228.58 173.409C229.353 174.563 229.089 175.452 227.78 175.888C226.691 176.258 225.599 176.295 224.481 176.245C223.799 176.209 223.104 176.128 222.435 176.136C221.33 176.129 220.9 176.781 221.344 177.795C221.453 178.001 221.562 178.207 221.702 178.356C222.951 179.656 224.471 180.255 226.286 179.908C227.603 179.661 228.882 179.283 230.199 179.035C232.556 178.575 234.892 177.883 237.335 177.875C239.096 177.83 240.86 178.119 242.445 178.937C244.816 180.143 245.689 182.603 244.938 184.925C244.397 186.659 243.545 188.152 242.109 189.293C241.87 189.46 241.544 189.652 241.297 189.629C239.969 189.355 238.717 189.011 237.274 188.675Z" fill="black"/>
<path d="M240.408 197.955C240.828 197.592 241.129 197.312 241.429 197.033C242.456 195.965 242.416 195.023 241.241 194.131C240.929 193.889 240.499 193.73 240.112 193.559C238.219 192.832 236.216 192.709 234.276 192.473C233.48 192.375 232.697 192.321 231.888 192.179C229.878 191.868 228.165 190.944 226.79 189.539C225.485 188.208 225.149 186.59 225.765 184.786C225.944 184.256 226.244 183.976 226.945 183.911C228.534 183.774 230.129 183.493 231.75 183.299C231.644 183.426 231.506 183.609 231.343 183.706C229.974 184.588 230.289 185.974 230.935 187.023C231.377 187.703 231.968 188.243 232.834 188.416C234.017 188.686 235.244 188.942 236.427 189.212C238.489 189.698 240.525 190.097 242.538 190.741C244.076 191.239 245.303 192.307 246.168 193.768C246.84 194.904 246.685 196 246.069 196.994C245.053 198.583 244.877 198.635 242.999 198.285C242.102 198.169 241.305 198.071 240.408 197.955Z" fill="black"/>
<path d="M245.865 206.5C244.765 206.349 243.709 206.184 242.597 205.989C243.079 205.513 243.499 205.15 243.861 204.756C244.543 203.981 244.498 203.184 243.842 202.424C243.338 201.858 242.705 201.664 241.992 201.684C240.654 201.699 239.329 201.758 238.009 201.672C236.733 201.573 235.431 201.386 234.16 201.142C233.553 201.036 232.925 200.697 232.398 200.376C231.516 199.827 231.274 198.849 231.279 197.893C231.265 196.228 231.92 194.555 233.195 193.032C234.453 193.232 235.791 193.217 237.057 193.605C236.565 194.371 236.034 195.006 235.629 195.745C234.959 197.041 235.473 198.129 236.933 198.365C238.191 198.564 239.441 198.576 240.686 198.732C241.931 198.888 243.189 199.087 244.416 199.344C245.036 199.494 245.65 199.789 246.208 200.053C247.64 200.678 248.362 202.468 247.562 204.136C247.127 204.933 246.616 205.8 245.865 206.5Z" fill="black"/>
<path d="M236.956 177.081C238.151 176.584 239.271 176.156 240.379 175.685C242.09 174.987 243.442 172.917 243.322 171.378C243.23 170.26 242.564 169.79 241.584 170.367C241.169 170.585 240.793 170.935 240.36 171.254C239.256 172.058 238.165 172.906 236.772 173.224C236.142 173.363 235.53 173.401 235.146 172.751C234.98 172.514 234.889 172.207 234.855 171.931C234.69 170.405 235.636 168.742 237.215 168.083C238.543 167.547 239.896 167.098 241.335 167.101C243.879 167.11 245.784 168.359 246.587 170.745C247.112 172.354 246.879 173.998 245.869 175.442C245.151 176.418 244.249 177.258 243.22 177.992C242.906 178.228 242.655 178.35 242.268 178.179C240.823 177.509 239.262 177.256 237.69 177.293C237.488 177.257 237.273 177.178 236.956 177.081Z" fill="black"/>
<path d="M238.649 209.497C239.736 209.604 240.778 209.724 241.922 209.863C241.798 210.09 241.749 210.248 241.686 210.362C241.308 211.189 241.482 211.615 242.268 212.002C242.668 212.218 243.13 212.319 243.56 212.478C243.897 211.997 244.216 211.616 244.477 211.204C244.863 210.565 244.733 210.127 244.062 209.801C243.618 209.599 243.13 209.409 242.638 209.364C241.323 209.134 239.989 209.004 238.674 208.773C237.777 208.658 236.885 208.397 236.073 207.922C235.959 207.861 235.787 207.768 235.673 207.707C233.984 206.537 233.63 205.02 234.638 203.243C234.869 202.888 235.099 202.534 235.374 202.166C236.012 202.215 236.606 202.278 237.2 202.341C237.781 202.359 238.318 202.391 239.044 202.414C238.712 202.751 238.5 203.005 238.287 203.259C237.862 203.766 237.754 204.371 237.834 204.967C237.954 205.695 238.419 206.13 239.127 206.254C240.486 206.472 241.876 206.632 243.222 206.806C244.018 206.904 244.815 207.002 245.58 207.157C245.883 207.21 246.2 207.307 246.428 207.43C247.543 207.958 247.943 208.985 247.366 210.11C247.068 210.723 246.599 211.244 246.13 211.764C245.767 212.158 245.347 212.521 244.896 212.941C246.281 213.246 247.622 213.564 249.254 213.892C248.8 213.979 248.636 214.075 248.434 214.039C247.171 213.984 245.908 213.929 244.663 213.773C244.069 213.711 243.628 213.841 243.208 214.204C242.042 215.122 240.863 215.997 239.652 216.928C239.577 216.998 239.432 216.993 239.123 217.084C240.3 215.877 241.37 214.797 242.56 213.633C242.142 213.518 241.839 213.465 241.522 213.368C240.902 213.218 240.251 213.124 239.618 212.93C237.896 212.296 237.558 211.155 238.649 209.497Z" fill="black"/>
<path d="M216.026 154.182C214.696 155.196 213.416 156.052 212.231 157.071C210.984 158.204 209.865 159.442 208.688 160.649C207.073 162.32 205.402 163.961 203.787 165.632C203.017 166.432 202.05 167.053 201.075 167.485C199.805 168.052 198.467 168.067 197.221 167.1C198.123 166.26 198.994 165.478 199.852 164.651C202.063 162.565 204.261 160.435 206.516 158.335C207.449 157.439 208.465 156.66 209.512 155.825C210.591 154.933 211.9 154.498 213.17 153.93C213.686 153.73 214.298 153.692 214.866 153.667C215.201 153.663 215.663 153.765 216.026 154.182Z" fill="black"/>
<path d="M235.006 148.653C235.076 147.917 235.553 147.585 236.074 147.24C237.085 146.606 238.265 146.543 239.362 146.361C241.335 146.062 243.27 146.443 245.179 146.736C249.326 147.464 253.443 148.248 257.603 149.019C257.66 149.049 257.717 149.08 257.818 149.098C257.319 150.486 256.232 151.19 254.915 151.437C253.963 151.624 252.973 151.679 251.948 151.457C249.539 150.931 247.142 150.448 244.789 149.953C242.74 149.51 240.691 149.068 238.624 148.726C237.613 148.549 236.591 148.661 235.53 148.641C235.354 148.693 235.209 148.689 235.006 148.653Z" fill="black"/>
<path d="M216.675 154.753C217.243 155.538 217.767 156.337 218.323 157.079C218.261 157.193 218.23 157.25 218.243 157.294C215.422 158.94 213.385 161.452 211.208 163.815C210.226 164.869 209.257 165.967 208.23 167.035C207.054 168.242 205.695 168.835 203.975 168.534C203.369 168.427 202.78 168.22 202.351 167.584C202.546 167.431 202.74 167.278 202.935 167.125C204.288 165.865 205.654 164.649 206.95 163.359C208.803 161.522 210.599 159.654 212.395 157.786C213.616 156.566 215.059 155.613 216.675 154.753Z" fill="black"/>
<path d="M253.718 152.412C253.433 153.88 251.922 155.091 250.332 155.228C248.932 155.356 247.64 154.881 246.299 154.562C244.496 154.142 242.668 153.635 240.839 153.127C239.01 152.619 237.159 152.357 235.297 152.384C235.107 152.392 234.905 152.357 234.614 152.347C234.65 151.335 234.655 150.379 234.703 149.411C236.513 149.209 238.199 149.234 239.901 149.636C243.19 150.379 246.479 151.122 249.754 151.821C251.069 152.052 252.358 152.194 253.718 152.412Z" fill="black"/>
<path d="M245.016 160.429C244.962 159.92 245.081 159.837 245.433 159.732C246.341 159.559 247.236 159.342 248.078 158.949C249.172 158.434 250.03 157.607 250.393 156.403C252.711 156.622 254.968 156.955 257.19 157.012C259.413 157.069 261.672 156.925 264.001 156.855C264.156 157.381 264.009 157.854 263.659 158.292C262.959 159.167 261.998 159.643 261.01 160.031C259.241 160.698 257.374 160.87 255.494 160.997C253.046 161.15 250.616 161.202 248.196 160.965C247.154 160.845 246.085 160.637 245.016 160.429Z" fill="black"/>
<path d="M196.136 176.868C200.235 174.842 203.887 172.281 207.194 169.202C207.423 169.325 207.638 169.405 207.809 169.497C208.876 170.183 210.081 170.207 211.254 169.955C212.016 169.777 212.682 169.437 213.432 169.215C213.608 169.162 213.792 169.299 214.096 169.352C213.541 170.232 212.795 170.787 212.105 171.373C209.661 173.48 206.871 175.07 204.069 176.616C202.868 177.258 201.629 177.768 200.312 178.016C199.581 178.137 198.792 178.227 198.053 178.16C197.226 178.119 196.523 177.85 196.136 176.868Z" fill="black"/>
<path d="M207.624 168.55C208.757 167.356 209.827 166.275 210.841 165.164C212.336 163.576 213.762 161.913 215.27 160.369C216.115 159.498 217.17 158.852 218.155 158.131C218.305 157.991 218.596 158 218.816 157.935C219.32 158.501 219.766 159.037 220.314 159.59C220.233 159.805 220.153 160.019 220.016 160.203C218.381 162.453 216.746 164.702 215.054 166.921C213.636 168.772 211.686 169.636 209.298 169.342C208.66 169.293 208.115 169.072 207.624 168.55Z" fill="black"/>
<path d="M234.282 155.595C234.401 154.701 234.527 153.995 234.659 153.145C234.981 153.098 235.315 153.094 235.637 153.046C237.75 152.897 239.706 153.51 241.724 154.01C244.362 154.659 247 155.309 249.625 155.915C249.669 155.901 249.682 155.945 249.796 156.007C249.757 156.686 249.376 157.181 248.868 157.57C247.609 158.659 246.079 159.16 244.411 159.034C243.817 158.971 243.197 158.821 242.609 158.614C240.025 157.662 237.441 156.71 234.858 155.758C234.712 155.753 234.541 155.661 234.282 155.595Z" fill="black"/>
<path d="M254.485 152.089C256.905 152.326 259.262 152.677 261.542 152.765C263.866 152.84 266.169 152.682 268.542 152.599C267.977 153.769 267.417 154.793 266.349 155.396C265.903 155.671 265.4 155.915 264.89 155.971C260.476 156.611 256.057 156.585 251.663 155.835C251.606 155.805 251.549 155.774 251.391 155.725C252.874 154.904 254.427 154.158 254.485 152.089Z" fill="black"/>
<path d="M190.079 175.847C192.114 174.624 194.131 173.502 195.995 172.186C197.903 170.858 199.658 169.336 201.483 167.889C203.123 169.216 203.123 169.216 206.305 169.275C204.705 170.512 203.295 171.741 201.789 172.807C199.7 174.333 197.432 175.577 195.08 176.703C194.281 177.083 193.436 177.143 192.627 177.001C191.703 176.797 190.873 176.423 190.079 175.847Z" fill="black"/>
<path d="M257.891 161.48C257.656 163.601 256.498 164.707 254.615 165.313C252.512 165.984 250.505 166.006 248.435 165.331C246.308 164.626 244.194 163.964 242.124 163.289C241.966 163.241 241.852 163.179 241.535 163.082C242.704 162.497 243.85 162.157 244.529 161.05C248.988 162.019 253.412 161.901 257.891 161.48Z" fill="black"/>
<path d="M203.761 177.518C207.777 175.374 211.564 173.107 214.687 169.892C215.878 170.35 217.05 170.098 218.38 169.895C218.15 170.25 218.056 170.42 217.906 170.56C216.387 172.394 214.926 174.258 213.394 176.048C211.756 177.964 209.599 178.937 207.076 179.16C206.142 179.246 205.356 178.858 204.633 178.357C204.378 178.146 204.155 177.879 203.761 177.518Z" fill="black"/>
<path d="M222.31 153.703C221.738 151.774 222.857 149.725 224.809 149.194C226.63 148.702 228.656 149.39 229.375 151.658C230.03 153.706 228.709 155.719 226.946 156.242C224.671 156.82 222.627 155.422 222.31 153.703Z" fill="black"/>
<path d="M234.186 156.243C237.535 157.35 240.78 158.917 244.267 159.84C244.112 160.935 243.334 161.547 242.359 161.979C240.409 162.843 238.513 162.594 236.682 161.753C235.25 161.128 233.867 160.345 232.466 159.663C232.352 159.601 232.282 159.526 232.212 159.452C232.86 158.401 233.508 157.351 234.186 156.243Z" fill="black"/>
<path d="M214.336 168.708C216.77 166.079 218.625 162.953 220.874 160.187C221.99 160.715 223.105 161.244 224.278 161.803C224.244 162.337 223.806 162.801 223.527 163.313C222.786 164.535 222.032 165.712 221.234 166.903C220.192 168.404 218.696 169.181 216.912 169.471C215.916 169.671 215.006 169.511 214.336 168.708Z" fill="black"/>
<path d="M184.679 174.776C189.032 172.961 192.939 170.611 196.413 167.769C197.463 168.078 198.457 168.356 199.45 168.634C197.589 170.283 195.601 171.826 193.434 173.088C192.29 173.761 191.147 174.434 189.934 175.032C189.179 175.399 188.329 175.603 187.522 175.794C187.302 175.859 187.087 175.78 186.84 175.758C186.088 175.647 185.403 175.277 184.679 174.776Z" fill="black"/>
<path d="M256.785 151.598C257.467 150.824 258.104 150.063 258.817 149.231C263.252 149.635 267.79 149.578 272.517 148.702C271.935 149.972 271.388 151.04 270.009 151.401C268.73 151.78 267.475 151.914 266.15 151.972C263.09 152.163 260.04 152.065 257.031 151.621C256.943 151.647 256.899 151.66 256.785 151.598Z" fill="black"/>
<path d="M212.2 178.167C215.176 175.424 217.388 172.049 220.071 168.965C220.224 169.158 220.364 169.307 220.504 169.457C221.174 170.26 222.04 170.433 223.002 169.957C223.461 169.726 223.951 169.437 224.409 169.206C224.431 170.249 223.85 171.041 222.969 171.302C221.911 171.616 220.993 172.079 220.057 172.642C218.45 173.691 217.541 175.153 217.399 177.103C217.379 177.682 217.117 178.093 216.57 178.351C215.608 178.826 214.62 179.215 213.495 178.976C213.033 178.874 212.589 178.671 212.2 178.167Z" fill="black"/>
<path d="M236.104 165.789C236.557 165.702 236.98 165.672 237.434 165.585C238.865 165.4 239.581 164.901 239.523 163.249C239.826 163.302 240.13 163.355 240.389 163.422C242.877 164.211 245.333 165.058 247.808 165.803C248.801 166.081 249.813 166.259 250.837 166.48C250.938 166.498 251.052 166.559 251.198 166.564C251.087 167.646 250.441 168.219 249.656 168.643C249.153 168.887 248.567 169.013 247.981 169.139C247.25 169.26 246.63 169.11 246.131 168.399C244.854 166.678 242.956 166.096 240.855 166.289C240.01 166.349 239.203 166.54 238.366 166.788C237.881 166.932 237.489 166.905 237.064 166.601C236.708 166.373 236.366 166.188 236.01 165.959C236.041 165.902 236.073 165.846 236.104 165.789Z" fill="black"/>
<path d="M235.865 182.461C236.346 184.084 236.827 185.706 237.333 187.417C237.002 187.754 236.701 188.034 236.369 188.37C235.965 188.299 235.604 188.215 235.199 188.144C234.309 186.595 234.08 184.851 233.498 183.21C234.324 182.44 234.677 182.336 235.865 182.461Z" fill="black"/>
<path d="M240.065 196.96C239.498 197.796 238.867 197.935 238.063 197.648C237.764 196.639 237.466 195.631 237.128 194.491C237.34 194.237 237.584 193.926 237.871 193.602C238.061 193.594 238.206 193.599 238.364 193.647C239.332 193.837 239.288 193.851 239.498 194.885C239.605 195.569 239.87 196.302 240.065 196.96Z" fill="black"/>
<path d="M242.35 205.156C242.08 205.379 241.855 205.589 241.603 205.711C241.144 205.943 240.485 205.661 240.285 205.148C240.046 204.503 239.895 203.832 239.656 203.187C239.566 202.88 239.69 202.652 239.941 202.53C240.4 202.299 240.903 202.054 241.505 202.305C241.765 203.183 242.038 204.103 242.35 205.156Z" fill="black"/>
<path d="M244.902 214.418C245.136 215.207 245.383 216.041 245.63 216.874C245.786 217.4 245.397 217.706 245.249 218.179C244.484 218.024 244.064 217.576 243.887 216.818C243.736 216.147 243.497 215.502 243.315 214.888C243.771 214.324 244.217 214.048 244.902 214.418Z" fill="black"/>
<path d="M224.425 177.025C223.873 177.427 223.377 177.86 222.794 178.319C222.135 178.037 221.759 177.576 221.777 176.665C222.661 176.737 223.488 176.778 224.36 176.806C224.373 176.85 224.399 176.937 224.425 177.025Z" fill="black"/>
<path d="M242.454 172.494C241.759 172.414 241.064 172.334 240.382 172.297C240.356 172.209 240.343 172.166 240.317 172.078C240.988 171.593 241.646 171.064 242.362 170.565C242.948 171.25 242.783 171.824 242.454 172.494Z" fill="black"/>
<path d="M243.199 211.583C242.87 211.442 242.527 211.258 242.04 211.068C242.257 210.67 242.444 210.328 242.661 209.93C243.123 210.031 243.496 210.159 243.901 210.23C243.907 210.896 243.575 211.233 243.199 211.583Z" fill="black"/>
</g>
<path d="M275.151 217.327C282.858 215.044 287.264 206.977 284.992 199.31C282.72 191.642 274.631 187.278 266.925 189.561C259.218 191.845 254.812 199.911 257.084 207.578C259.356 215.246 267.445 219.61 275.151 217.327Z" fill="url(#paint0_linear)"/>
<path d="M270.854 210.197L263.769 206.42L264.88 204.387L269.957 207.172L275.723 196.532L277.708 197.648L270.854 210.197Z" fill="white"/>
</g>
<defs>
<filter id="filter0_d" x="4.99976" y="27.4998" width="580.5" height="609.578" filterUnits="userSpaceOnUse" color-interpolation-filters="sRGB">
<feFlood flood-opacity="0" result="BackgroundImageFix"/>
<feColorMatrix in="SourceAlpha" type="matrix" values="0 0 0 0 0 0 0 0 0 0 0 0 0 0 0 0 0 0 127 0"/>
<feOffset dy="14"/>
<feGaussianBlur stdDeviation="12"/>
<feColorMatrix type="matrix" values="0 0 0 0 0 0 0 0 0 0.629167 0 0 0 0 0.591605 0 0 0 0.38 0"/>
<feBlend mode="normal" in2="BackgroundImageFix" result="effect1_dropShadow"/>
<feBlend mode="normal" in="SourceGraphic" in2="effect1_dropShadow" result="shape"/>
</filter>
<filter id="filter1_d" x="108.992" y="52.4138" width="285.403" height="392.952" filterUnits="userSpaceOnUse" color-interpolation-filters="sRGB">
<feFlood flood-opacity="0" result="BackgroundImageFix"/>
<feColorMatrix in="SourceAlpha" type="matrix" values="0 0 0 0 0 0 0 0 0 0 0 0 0 0 0 0 0 0 127 0"/>
<feOffset dy="14"/>
<feGaussianBlur stdDeviation="12"/>
<feColorMatrix type="matrix" values="0 0 0 0 0 0 0 0 0 0.629167 0 0 0 0 0.591605 0 0 0 0.38 0"/>
<feBlend mode="normal" in2="BackgroundImageFix" result="effect1_dropShadow"/>
<feBlend mode="normal" in="SourceGraphic" in2="effect1_dropShadow" result="shape"/>
</filter>
<linearGradient id="paint0_linear" x1="252.971" y1="193.696" x2="287.19" y2="190.772" gradientUnits="userSpaceOnUse">
<stop stop-color="#7FEED3"/>
<stop offset="1" stop-color="#43DAE0"/>
</linearGradient>
</defs>
</svg>
