<svg width="120" height="24" viewBox="0 0 120 24" fill="none" xmlns="http://www.w3.org/2000/svg">
<g clip-path="url(#clip0)">
<path d="M17.3736 0.451767C25.2808 0.451767 29.7912 5.70353 29.7912 11.9718C29.7912 18.24 25.2808 23.4918 17.3736 23.4918H9.46637V0.451767H17.3736ZM17.2065 19.4824C22.1624 19.4824 25.2808 16.3765 25.2808 12.0282C25.2808 7.68 22.1624 4.51765 17.2065 4.51765H13.9768V19.4824H17.2065Z" fill="black"/>
<path d="M31.9629 17.1106H36.529C37.587 19.0306 39.703 19.8776 42.2645 19.8776C45.1601 19.8776 47.0534 18.6918 47.0534 16.8847C47.0534 15.1906 45.9397 14.4 43.2111 14.1176L39.3132 13.7224C34.5244 13.2706 32.5754 10.6165 32.5754 7.17176C32.5754 2.99294 36.0835 0 41.652 0C47.3318 0 50.6172 3.38824 51.6752 6.83294H47.1091C46.3295 5.13882 44.0464 4.06588 41.5406 4.06588C38.5337 4.06588 37.0302 5.47765 37.0302 7.11529C37.0302 8.64 38.2552 9.48706 40.2599 9.76941L44.5476 10.1647C48.9466 10.6165 51.5638 13.1576 51.5638 16.7718C51.5638 20.4988 48.4455 24 42.2645 24C36.2506 24 33.1323 21.0071 31.9629 17.1106Z" fill="black"/>
<path d="M55.239 0.451767H59.7495V13.8353C59.7495 17.8447 61.8655 19.9341 65.2622 19.9341C68.659 19.9341 70.7193 17.8447 70.7193 13.8353V0.451767H75.2297V13.8353C75.2297 20.2729 71.2761 23.9435 65.2622 23.9435C59.2483 23.9435 55.239 20.2729 55.239 13.8353V0.451767V0.451767Z" fill="black"/>
<path d="M93.8283 14.4565L100.622 23.5482H95.0534L88.4269 14.6824H84.8074V23.5482H80.297V0.451767H91.5453C96.9466 0.451767 99.4524 3.72706 99.4524 7.56706C99.4524 10.7859 97.6705 13.7224 93.8283 14.4565ZM84.8074 10.6165H91.2668C93.6056 10.6165 94.942 9.37412 94.942 7.56706C94.942 5.70353 93.5499 4.51765 91.2668 4.51765H84.8074V10.6165Z" fill="black"/>
<path d="M108.529 4.51765V9.93883H119.777V14.0047H108.529V19.4824H120V23.5482H104.019V0.451767H120V4.51765H108.529Z" fill="black"/>
<path d="M2.5058 19.7647C3.88972 19.7647 5.0116 18.627 5.0116 17.2235C5.0116 15.8201 3.88972 14.6824 2.5058 14.6824C1.12189 14.6824 0 15.8201 0 17.2235C0 18.627 1.12189 19.7647 2.5058 19.7647Z" fill="black"/>
<path d="M2.5058 9.03529C3.88972 9.03529 5.0116 7.89757 5.0116 6.49412C5.0116 5.09067 3.88972 3.95294 2.5058 3.95294C1.12189 3.95294 0 5.09067 0 6.49412C0 7.89757 1.12189 9.03529 2.5058 9.03529Z" fill="black"/>
</g>
<defs>
<clipPath id="clip0">
<rect width="120" height="24" fill="white"/>
</clipPath>
</defs>
</svg>
